<svg xmlns="http://www.w3.org/2000/svg">
  <defs>
    <!-- Icons go here -->
    <symbol id="icon_plot" viewBox="-5.0 -10.0 110.0 135.0">
        <path d="m92.957 75.504h-24.738v-3.6055c-0.007812-3.2852-1.7812-6.3125-4.6445-7.9258v-22.574c-0.007813-5.0586-4.1055-9.1602-9.168-9.1641h-1.9062v-3.7734c1.2031-0.21484 2.3633-0.60938 3.4453-1.1719 3.2266-1.6602 5.2383-4.9961 5.2031-8.6211-0.23047-3.0781-1.5352-5.9766-3.6836-8.1875-1.9219-1.9102-3.0859-4.4492-3.2773-7.1484-0.003906-0.80859-0.39844-1.5703-1.0586-2.0391-0.66406-0.46484-1.5117-0.58203-2.2773-0.3125-3.9922 1.5156-7.4141 4.2344-9.7891 7.7812-3.4336 5.8398-3.2383 14.301 3.0312 18.355v0.003906c1.0469 0.65234 2.207 1.1133 3.418 1.3516v3.7617h-1.9062c-5.0586 0.003906-9.1602 4.1055-9.1641 9.1641v22.574c-2.8672 1.6133-4.6484 4.6406-4.6602 7.9258v3.6016l-24.738 0.003906c-1.7656-0.003906-3.4375 0.80078-4.5352 2.1836-1.1328 1.418-1.5547 3.2734-1.1484 5.043 1.0547 4.6797 3.6719 8.8633 7.4258 11.852s8.418 4.6055 13.215 4.5859h56c4.7969 0.019531 9.457-1.5977 13.211-4.5859 3.75-2.9922 6.3711-7.1719 7.4219-11.852 0.41016-1.7656-0.007812-3.625-1.1406-5.0391-1.0977-1.3867-2.7695-2.1914-4.5352-2.1875zm-46.164-52.586c-4.082-2.6445-3.2695-8.5-1.4336-11.625 1.1055-1.7266 2.6094-3.168 4.3789-4.1992 0.84375 2.3789 2.1289 4.5781 3.793 6.4805 1.418 1.3555 2.3398 3.1484 2.6172 5.0938 0.023437 1.7852-0.98438 3.4297-2.5898 4.2188-0.33984 0.16406-0.69531 0.29688-1.0586 0.40234v-3.0508c0-1.3789-1.1211-2.5-2.5-2.5s-2.5 1.1211-2.5 2.5v2.9766c-0.24219-0.078125-0.48047-0.17969-0.70703-0.29688zm-5.3672 18.484v-0.003906c0.003907-2.3008 1.8672-4.1641 4.168-4.1641h8.8125c2.3008 0 4.1641 1.8633 4.168 4.1641v21.332l-17.148 0.003906zm-4.6484 30.5 0.003906-0.003906c0-2.3008 1.8633-4.1641 4.1641-4.1641h18.109c2.3008 0 4.1641 1.8633 4.1641 4.1641v3.6016l-26.438 0.003906zm41.223 22.266h-56c-3.6641 0.015625-7.2227-1.2188-10.09-3.5-2.8672-2.2812-4.8672-5.4727-5.6719-9.0469-0.070312-0.28516-0.003906-0.58594 0.17578-0.81641 0.15234-0.19531 0.38281-0.30469 0.62891-0.30078h85.914c0.24609-0.003906 0.48047 0.10547 0.62891 0.30078 0.17578 0.23047 0.24219 0.52734 0.17578 0.8125-0.80469 3.5742-2.8047 6.7656-5.6719 9.0508-2.8672 2.2812-6.4258 3.5156-10.09 3.5z"/>
        <text x="0.0" y="117.5" font-size="5.0" font-weight="bold" font-family="Arbeit Regular, Helvetica, Arial-Unicode, Arial, Sans-serif" fill="#000000">Created by Atif Arshad</text><text x="0.0" y="122.5" font-size="5.0" font-weight="bold" font-family="Arbeit Regular, Helvetica, Arial-Unicode, Arial, Sans-serif" fill="#000000">from Noun Project</text>
    </symbol>

    <symbol id="icon_setting" viewBox="-5.0 -10.0 110.0 135.0">
        <path d="m96.668 88.102h-11.391v-14h5.1641c3.0977 0 5.9609-1.6445 7.5273-4.3203 1.5625-2.6719 1.5898-5.9766 0.074219-8.6797l-1.2422-2.2109v0.003906c2.6016-2.7734 3.1055-6.9141 1.2422-10.23l-1.2422-2.2109c2.6016-2.7734 3.1055-6.918 1.2422-10.234l-14-24.887c-1.543-2.7461-4.4492-4.4492-7.6016-4.4492s-6.0625 1.7031-7.6055 4.4492l-5.6172 10-5.6172-9.9805c-1.5391-2.75-4.4492-4.4531-7.6016-4.4531s-6.0586 1.7031-7.6016 4.4531l-5.625 10-5.6133-10h0.003906c-1.543-2.7539-4.4531-4.457-7.6055-4.457s-6.0625 1.7031-7.6055 4.457l-13.996 24.883c-1.8672 3.3164-1.3633 7.4609 1.2422 10.23l-1.2422 2.2031c-1.8672 3.3164-1.3633 7.457 1.2383 10.23l-1.2383 2.2109c-1.5234 2.7031-1.4961 6.0078 0.070313 8.6836s4.4336 4.3203 7.5312 4.3164h5.1602v14h-11.387c-1.3789 0-2.5 1.1211-2.5 2.5 0 1.3828 1.1211 2.5 2.5 2.5h93.336c1.3789 0 2.5-1.1172 2.5-2.5 0-1.3789-1.1211-2.5-2.5-2.5zm-69.27 0h-7.668v-14h7.668zm13.766 0h-8.7656v-14h8.7656zm-2.625-41 2.2617 4.0352v0.003906c0.99219 1.7656 0.38672 4-1.3594 5.0273-1.1719 0.69141-1.5742 2.1914-0.90625 3.3789l2.2617 4.0352 0.003906-0.003906c0.31641 0.55859 0.48047 1.1875 0.47656 1.8281-0.003906 2.0547-1.668 3.7148-3.7188 3.7188h-28c-2.0547 0-3.7227-1.6641-3.7266-3.7188 0-0.63672 0.16406-1.2656 0.47656-1.8242l2.2656-4.0352h0.003906c0.67188-1.1914 0.26953-2.6992-0.91016-3.3945-1.75-1.0234-2.3555-3.2578-1.3594-5.0273l2.2656-4.0352c0.66406-1.1836 0.26172-2.6836-0.90625-3.375-1.1367-0.66797-1.8359-1.8906-1.8398-3.207-0.003906-0.64062 0.16016-1.2656 0.47656-1.8203l14-24.887c0.65625-1.1758 1.8984-1.9062 3.2461-1.9062 1.3477 0 2.5898 0.73047 3.2461 1.9062l14 24.879c0.31641 0.55859 0.48047 1.1875 0.47656 1.8281-0.003907 1.3164-0.70313 2.5352-1.8359 3.207-1.168 0.69531-1.5703 2.1914-0.90234 3.375zm15.297 41h-7.668v-14h7.668zm2.2461-41.637-1.2461 2.2148h-0.003907c-1.8594 3.3164-1.3516 7.4531 1.2461 10.227l-1.2461 2.2148v0.003906c-0.73047 1.3047-1.1133 2.7734-1.1133 4.2695 0.007812 1.2891 0.30469 2.5586 0.86719 3.7188h-9.1758c0.5625-1.1602 0.85938-2.4297 0.86719-3.7188 0-1.4961-0.38672-2.9688-1.1172-4.2734l-1.2422-2.2148c2.6016-2.7695 3.1055-6.9102 1.2422-10.227l-1.2422-2.2148c2.6016-2.7734 3.1055-6.9141 1.2422-10.23l-5.5117-9.8047 7.1094-12.633c0.71094-1.0977 1.9336-1.7617 3.2422-1.7617 1.3125 0 2.5312 0.66406 3.2461 1.7617l7.1055 12.625-5.5195 9.8164c-1.8594 3.3164-1.3516 7.457 1.2461 10.227zm11.523 41.637h-8.7734v-14h8.7695zm12.668 0h-7.668v-14h7.668zm-3.2031-19h-14.637c-2.0547 0-3.7148-1.6641-3.7188-3.7188-0.003906-0.63672 0.16016-1.2656 0.47266-1.8203l2.2695-4.0352c0.67188-1.1875 0.26562-2.6914-0.90625-3.3828-1.7461-1.0273-2.3516-3.2617-1.3633-5.0273l2.2695-4.0352c0.66797-1.1836 0.26562-2.6875-0.90625-3.375-1.7461-1.0273-2.3516-3.2617-1.3633-5.0312l14-24.887c0.65625-1.1758 1.8984-1.9023 3.2461-1.9023s2.5898 0.72656 3.2461 1.9023l14 24.879v0.003906c0.98828 1.7695 0.38281 4.0039-1.3633 5.0352-1.1719 0.69141-1.5742 2.1914-0.90625 3.375l2.2695 4.0352c0.3125 0.55469 0.47266 1.1836 0.47266 1.8203 0.007812 1.3203-0.69141 2.543-1.8359 3.207-1.1719 0.69141-1.5742 2.1953-0.90625 3.3828l2.2695 4.0312c0.64453 1.1523 0.62891 2.5586-0.039063 3.6992-0.66797 1.1406-1.8867 1.8398-3.207 1.8438h-13.367z"/>
        <text x="0.0" y="117.5" font-size="5.0" font-weight="bold" font-family="Arbeit Regular, Helvetica, Arial-Unicode, Arial, Sans-serif" fill="#000000">Created by Atif Arshad</text><text x="0.0" y="122.5" font-size="5.0" font-weight="bold" font-family="Arbeit Regular, Helvetica, Arial-Unicode, Arial, Sans-serif" fill="#000000">from Noun Project</text>
    </symbol>

    <symbol id="icon_character" viewBox="-5.0 -10.0 110.0 135.0">
        <path d="m72.75 81.93v-3.5117c-0.003906-5.0625-4.1055-9.1641-9.168-9.168h-3.2969v-7.25h15.973c3.2188-0.003906 5.8281-2.6133 5.832-5.832v-8.0352c0.015625-5.418-2.7539-10.465-7.332-13.359l-10.488-6.668h-0.003906c1.4414-3.4297 2.1758-7.1172 2.1602-10.84 0.003907-1.125-0.10547-2.25-0.33203-3.3516v-0.019531c-1.0586-5.1133-4.5234-9.3984-9.2969-11.508-0.097656-0.078125-0.19922-0.15234-0.30859-0.21484-0.089843-0.039063-0.1875-0.050781-0.28125-0.089844-0.33203-0.14062-0.69531-0.21484-1.043-0.33203-0.66406-0.23828-1.3398-0.4375-2.0273-0.58984-0.27734-0.054687-0.55859-0.054687-0.83984-0.09375-0.75781-0.125-1.5273-0.19531-2.2969-0.21484-0.33203 0-0.69141 0.066407-1.0391 0.085938v0.003906c-0.70703 0.027344-1.4102 0.10156-2.1094 0.21875-0.45703 0.089844-0.90234 0.26172-1.3516 0.39453-0.53516 0.12109-1.0625 0.26953-1.582 0.44531-0.066407 0.027344-0.125 0.074219-0.19141 0.10156-0.066406 0.027344-0.14062 0.035157-0.21094 0.066407h-0.003906c-0.082031 0.050781-0.16016 0.10547-0.23828 0.16406-4.7852 2.1055-8.2617 6.3906-9.332 11.508 0 0.019531-0.019531 0.035156-0.023437 0.054687v0.03125-0.003906c-0.22266 1.0977-0.33594 2.2148-0.33594 3.3359-0.015625 3.7188 0.71875 7.4062 2.1602 10.84l-10.492 6.668v-0.003906c-4.5781 2.8984-7.3477 7.9453-7.332 13.363v8.0352-0.003906c0.003906 3.2188 2.6133 5.8281 5.832 5.832h15.969v7.2383h-3.293v0.003907c-5.0586 0.003906-9.1602 4.1055-9.1641 9.168v3.5117c-5.1484 0.85547-9.4727 4.3438-11.398 9.1914-0.73047 1.8164-0.51172 3.8789 0.58203 5.5039 1.082 1.6055 2.8906 2.5664 4.8242 2.5664h57.461c1.9336 0 3.7422-0.96094 4.8242-2.5664 1.0938-1.625 1.3125-3.6875 0.58203-5.5039-1.9297-4.8398-6.2461-8.3203-11.387-9.1719zm-33.938-66.988c0.78125-4.2031 3.9453-7.5664 8.0938-8.6094 0.30078-0.082031 0.59766-0.19922 0.90234-0.26172v0.003907c0.44141-0.074219 0.88672-0.12109 1.3359-0.14062 0.28906-0.023438 0.57812-0.074219 0.87109-0.074219h-0.003906c0.45312 0.015625 0.90625 0.054687 1.3555 0.125 0.28516 0.035156 0.56641 0.039063 0.84766 0.097656v-0.003906c0.38672 0.09375 0.76562 0.20312 1.1406 0.33594 0.33203 0.10156 0.66797 0.18359 1 0.33203 2.7539 1.125 4.9609 3.2812 6.1445 6.0078 0.30078 0.69922 0.53125 1.4258 0.68359 2.1719 0.16016 0.76953 0.24219 1.5508 0.24219 2.3359 0 9.1836-5.2305 16.941-11.426 16.941s-11.422-7.7539-11.422-16.938c0-0.78125 0.078125-1.5586 0.23438-2.3242zm-15.07 42.059c-0.46094 0-0.83203-0.375-0.83203-0.83203v-8.0352c-0.015625-3.7031 1.875-7.1523 5-9.1406l10.262-6.5312v0.003906c2.6094 4.0391 7.0234 6.5547 11.828 6.7461 4.8008-0.19141 9.207-2.7031 11.816-6.7383l10.262 6.5273c3.125 1.9844 5.0117 5.4375 5 9.1406v8.0352-0.003906c0 0.22266-0.089844 0.43359-0.24609 0.58984s-0.36719 0.24609-0.58984 0.24609zm31.543 5v7.2383h-10.57v-7.2383zm-23.035 16.406h0.003906c0.003906-2.3008 1.8672-4.1641 4.168-4.168h27.164-0.003907c2.3008 0.003907 4.1641 1.8672 4.168 4.168v3.2891h-35.496zm47.156 15.391h0.003906c-0.14453 0.22656-0.39844 0.36328-0.66797 0.36328h-57.473c-0.26953 0-0.51953-0.13672-0.66797-0.36328-0.17187-0.25-0.20312-0.57031-0.082031-0.84766 1.5078-3.7852 5.1758-6.2617 9.2461-6.2539h40.484c4.0742-0.011718 7.7383 2.4688 9.2422 6.2539 0.125 0.28125 0.09375 0.60547-0.082032 0.85938z"/>
        <text x="0.0" y="117.5" font-size="5.0" font-weight="bold" font-family="Arbeit Regular, Helvetica, Arial-Unicode, Arial, Sans-serif" fill="#000000">Created by Atif Arshad</text><text x="0.0" y="122.5" font-size="5.0" font-weight="bold" font-family="Arbeit Regular, Helvetica, Arial-Unicode, Arial, Sans-serif" fill="#000000">from Noun Project</text>
    </symbol>

    <symbol id="icon_personal" viewBox="-5.0 -10.0 110.0 135.0">
        <path d="m91.102 0.84375c-9.9141 0.57812-19.586 3.2773-28.367 7.9141-1.3047 0.69141-2.3008 1.8516-2.7891 3.25l-1.7891 5.0781v-0.003907c-0.87109-0.75781-1.9414-1.2422-3.0859-1.3984-1.5234-0.21094-3.0703 0.20312-4.2852 1.1484-6.0742 5.4961-10.785 12.332-13.766 19.961-0.47266 1.1211-0.57422 2.3633-0.29297 3.543l1.0234 5.0742c-2.3594 0.66016-3.9297 2.8906-3.7617 5.332l0.53125 7.5234-0.33203-0.33203c-3.2656-3.2734-8.418-3.7031-12.18-1.0156-3.7617 2.6875-5.0273 7.7031-2.9883 11.852l-7.1328 4.2852c-2.4922 1.5273-4.1094 4.1484-4.3555 7.0586-0.53906 5.375-2.0469 10.605-4.4531 15.445-0.46484 0.95703-0.26953 2.1094 0.48828 2.8594 0.75781 0.75391 1.9102 0.94141 2.8672 0.47266 4.8359-2.4023 10.07-3.9141 15.441-4.457 2.9141-0.24609 5.5352-1.8633 7.0664-4.3555l4.2773-7.1289-0.003906-0.003907c4.1523 2.0391 9.168 0.77344 11.855-2.9883s2.2539-8.918-1.0195-12.18l-0.625-0.625c24.598-0.27344 36.285-13.254 40.332-19.172v-0.003907c1.6406-2.4062 1.2578-5.6562-0.90625-7.6133 1.7891-0.66797 3.7305-1.3906 5.1562-1.9297h0.003907c1.4727-0.53906 2.6641-1.6641 3.2812-3.1094 3.3711-9.0391 5.3516-18.539 5.875-28.172 0.14062-1.6875-0.45703-3.3555-1.6367-4.5703-1.1484-1.1992-2.7695-1.8359-4.4297-1.7383zm-66.434 86.672c-0.72266 1.1367-1.9414 1.8633-3.2852 1.9609-3.8789 0.39063-7.6992 1.2383-11.383 2.5234 1.2812-3.6797 2.125-7.5 2.5195-11.375 0.089844-1.3477 0.8125-2.5664 1.9453-3.293l7.7148-4.6289 7.0977 7.0977zm15.863-9.8672c-0.83984 0.84375-1.9805 1.3164-3.168 1.3164s-2.3281-0.47266-3.168-1.3164l-9.8633-9.8555c-1.7461-1.75-1.7461-4.5859 0-6.332 1.75-1.75 4.5859-1.75 6.3359 0l9.8477 9.8711c0.84375 0.83984 1.3164 1.9805 1.3164 3.168s-0.47266 2.3281-1.3164 3.168zm46.16-44.285c-0.085937 0.19531-0.25391 0.34375-0.45312 0.40625-3.4453 1.3047-9.8984 3.6953-9.9023 3.6953h-0.003907c-0.90234 0.33594-1.5352 1.1602-1.6211 2.1211-0.082032 0.96094 0.39062 1.8867 1.2227 2.375l3.4102 2.0195c0.20312 0.11328 0.35156 0.3125 0.39844 0.54297 0.058593 0.23047 0.011718 0.47266-0.125 0.66797-3.6133 5.293-14.195 16.91-36.828 16.984l39.375-43.914c0.46484-0.49219 0.71484-1.1484 0.6875-1.8242-0.023437-0.67969-0.32422-1.3164-0.82812-1.7656-0.50391-0.45312-1.1719-0.67969-1.8477-0.63281-0.67578 0.050782-1.3008 0.36719-1.7344 0.88672l-38.852 43.332-0.49609-8-0.003906 0.003907c2.6641-0.73438 4.2695-3.4414 3.6406-6.1328l-1.1328-4.8867c-0.042968-0.16406-0.027344-0.33594 0.035156-0.49219 2.6836-6.8203 6.8633-12.953 12.234-17.941 0.15234-0.11719 0.34766-0.16406 0.53516-0.13672 0.23438 0.027344 0.44922 0.14453 0.59766 0.32812l2 2.6875c0.54688 0.75 1.4648 1.1289 2.3789 0.98047 0.91406-0.14062 1.6758-0.76953 1.9844-1.6406l3.3047-9.3594c0.070312-0.21484 0.21875-0.39062 0.41406-0.49609 8.1445-4.3008 17.117-6.8008 26.312-7.3359 0.1875-0.058594 0.44141 0.11719 0.55469 0.22656h-0.003907c0.17188 0.17969 0.25781 0.42188 0.23828 0.66797-0.48047 9.1016-2.332 18.082-5.4922 26.633z"/>
        <text x="0.0" y="117.5" font-size="5.0" font-weight="bold" font-family="Arbeit Regular, Helvetica, Arial-Unicode, Arial, Sans-serif" fill="#000000">Created by Atif Arshad</text><text x="0.0" y="122.5" font-size="5.0" font-weight="bold" font-family="Arbeit Regular, Helvetica, Arial-Unicode, Arial, Sans-serif" fill="#000000">from Noun Project</text>
    </symbol>

    <symbol id="icon_search" viewBox="-5.0 -10.0 110.0 135.0">
        <path d="m91.023 70.828-10-5.2539c-1.5586-0.80859-2.7422-2.1875-3.3047-3.8477-0.41406-1.2188-1.375-2.1758-2.5977-2.5781-1.2227-0.40625-2.5625-0.21875-3.625 0.51172l-7.6875-7.6875c5.6992-9.5781 6.3438-21.34 1.7188-31.484-4.6211-10.141-13.922-17.371-24.887-19.355-10.969-1.9844-22.211 1.5352-30.094 9.4141-7.8789 7.8828-11.398 19.125-9.4141 30.094 1.9844 10.965 9.2148 20.266 19.355 24.887 10.145 4.625 21.906 3.9805 31.484-1.7188l7.6953 7.6875c-0.73438 1.0586-0.92578 2.4023-0.52344 3.625 0.40625 1.2227 1.3594 2.1836 2.5781 2.5977 1.6641 0.56641 3.0469 1.75 3.8555 3.3125l5.2383 9.9648c1.2734 2.4766 3.2109 4.5508 5.5938 5.9961 2.3789 1.4414 5.1133 2.1953 7.8984 2.1797 0.4375 0 0.87891 0 1.332-0.058594l0.003906 0.003907c3.9453-0.35156 7.582-2.2891 10.078-5.3633 2.9102-3.5312 4.0625-8.1875 3.1289-12.668-0.91797-4.4297-3.7969-8.2031-7.8281-10.258zm-56.309-7.2383c-7.6602 0-15.008-3.043-20.422-8.457-5.418-5.418-8.4609-12.766-8.4648-20.426 0-7.6602 3.043-15.008 8.4609-20.426 5.418-5.4141 12.766-8.457 20.426-8.457s15.008 3.043 20.422 8.4609c5.418 5.418 8.4609 12.766 8.4609 20.426-0.011718 7.6562-3.0547 14.996-8.4688 20.41-5.4141 5.4141-12.754 8.4609-20.414 8.4688zm28.418 4.3008-6.9727-6.9727c1.7422-1.4297 3.3359-3.0273 4.7617-4.7695l6.9727 6.9727zm28.703 22.707c-1.6367 2.0234-4.0234 3.3008-6.6211 3.5391-4.1172 0.38672-8.0586-1.7656-9.9531-5.4453l-5.25-10c-1.1875-2.2812-3.0898-4.1133-5.4141-5.2109l8.9062-8.9023c1.0938 2.3281 2.9219 4.2344 5.207 5.4219l10 5.2617c2.7109 1.3867 4.6484 3.9336 5.2539 6.918 0.60547 2.9844-0.17969 6.082-2.1367 8.418z"/>
        <text x="0.0" y="117.5" font-size="5.0" font-weight="bold" font-family="Arbeit Regular, Helvetica, Arial-Unicode, Arial, Sans-serif" fill="#000000">Created by Atif Arshad</text><text x="0.0" y="122.5" font-size="5.0" font-weight="bold" font-family="Arbeit Regular, Helvetica, Arial-Unicode, Arial, Sans-serif" fill="#000000">from Noun Project</text>
    </symbol>

    <symbol id="icon_post" viewBox="-5.0 -10.0 110.0 135.0">
        <path d="m89.805 0.83203h-47.199c-5.0586 0.003907-9.1602 4.1055-9.1641 9.168v3.043h-16.578c-4.1992 0.003906-8.2227 1.6758-11.191 4.6445-2.9648 2.9688-4.6367 6.9922-4.6406 11.188v59.742c0.015625 5.832 4.7461 10.547 10.578 10.551h72.781c1.0273-0.003907 1.9492-0.63281 2.3242-1.5859 0.37891-0.95703 0.13281-2.0469-0.61328-2.75-1.7109-1.6289-2.6797-3.8867-2.6797-6.25s0.96875-4.6211 2.6797-6.2539l0.023438-0.03125c0.058594-0.058594 0.097656-0.125 0.14844-0.1875l-0.003907 0.003906c0.14062-0.15625 0.26172-0.33203 0.35547-0.52344 0.042969-0.089844 0.078125-0.1875 0.10938-0.28125 0.066406-0.19922 0.10938-0.41016 0.125-0.61719 0-0.0625 0.035156-0.12109 0.035156-0.1875l0.003907-14.469h2.9102c5.0586-0.007812 9.1602-4.1094 9.1641-9.168v-46.867c-0.003906-5.0625-4.1055-9.1641-9.168-9.168zm-74.668 93.332-3.5273 0.003907c-3.0273-0.074219-5.4414-2.5508-5.4414-5.5781 0-3.0312 2.4141-5.5039 5.4414-5.5781h3.5156c-2.1719 3.3984-2.1719 7.7539 0 11.156zm2.5469-16.164h-6.0742c-1.9766 0.007812-3.9102 0.57031-5.5781 1.6289v-50.754c0.007812-5.9766 4.8516-10.824 10.832-10.832h0.82031zm61.984 16.168h-55.598c-3.0273-0.074219-5.4453-2.5508-5.4453-5.5781 0-3.0312 2.418-5.5039 5.4453-5.5781h55.598c-1.6758 3.5273-1.6758 7.625 0 11.156zm2.2188-16.156h-59.203v-59.969h10.758v38.824c0.003906 5.0586 4.1055 9.1602 9.1641 9.168h39.289zm12.078-21.145c-0.003906 2.3008-1.8672 4.1641-4.168 4.168h-47.191c-2.3008-0.003906-4.1641-1.8672-4.1641-4.168v-46.867c0-2.3008 1.8633-4.1641 4.1641-4.168h47.199c2.2969 0.003907 4.1602 1.8672 4.1641 4.168z"/>
        <path d="m66.199 19.855c-4.7109-3.3203-11.105-2.8711-15.309 1.0742-4.1992 3.9492-5.0469 10.305-2.0234 15.215 0.47266 0.76562 1.9219 3.1055 10.93 9.4102 1.625 1.125 3.2578 2.2422 4.8242 3.2656 0.46484 0.27344 0.99609 0.41797 1.5391 0.41797 0.59766-0.003906 1.1875-0.16797 1.6992-0.47656 1.4609-0.95312 3.0977-2.0781 4.7266-3.207 8.1367-5.6289 10.172-8.0781 11-9.4219v-0.003906c3.0508-4.918 2.2031-11.305-2.0234-15.262-4.2266-3.9531-10.656-4.3789-15.363-1.0117zm13.105 13.668v0.019531h0.003906c-2.7344 3.1445-5.9648 5.8164-9.5703 7.9062-1.2188 0.84766-2.4414 1.6875-3.5469 2.4297-1.1367-0.76172-2.332-1.5977-3.543-2.4219v0.003907c-3.5781-2.1211-6.7969-4.8008-9.5312-7.9375-1.9141-3.1172-1.1641-7.1719 1.7344-9.3984 2.9023-2.2305 7.0117-1.9102 9.5312 0.74219 0.47266 0.5 1.1328 0.78516 1.8203 0.78516s1.3477-0.28516 1.8203-0.78516c2.5117-2.6758 6.6406-3.0117 9.5547-0.78125 2.9102 2.2305 3.6602 6.3086 1.7305 9.4258z"/>
        <text x="0.0" y="117.5" font-size="5.0" font-weight="bold" font-family="Arbeit Regular, Helvetica, Arial-Unicode, Arial, Sans-serif" fill="#000000">Created by Atif Arshad</text><text x="0.0" y="122.5" font-size="5.0" font-weight="bold" font-family="Arbeit Regular, Helvetica, Arial-Unicode, Arial, Sans-serif" fill="#000000">from Noun Project</text>
    </symbol>

    <symbol id="icon_share" viewBox="-5.0 -10.0 110.0 135.0">
        <path d="m31.062 44.75c-3.6836-3.6914-10.922-2.668-15.785 2.2031-2.1797 2.1406-3.6602 4.8945-4.2422 7.8945-0.66406 2.8047 0.10156 5.7578 2.0391 7.8906 1.5781 1.4961 3.6875 2.2969 5.8633 2.2266 0.67969 0 1.3633-0.0625 2.0312-0.18359 3-0.58594 5.7539-2.0625 7.8945-4.2422 4.875-4.8711 5.8789-12.098 2.1992-15.789zm-5.7305 12.25c-1.4219 1.4531-3.2461 2.4453-5.2383 2.8555-1.1992 0.34766-2.4922 0.097656-3.4766-0.66406-0.76172-0.98828-1.0078-2.2773-0.66797-3.4766 0.41016-1.9922 1.4023-3.8164 2.8555-5.2422 1.6836-1.7617 3.9766-2.8203 6.4102-2.9609 0.83984-0.054688 1.6641 0.21875 2.3047 0.76172 1.4805 1.4883 0.83203 5.7266-2.1875 8.7266z"/>
        <path d="m35.23 79.043c-0.66016 2.8086 0.10156 5.7578 2.0391 7.8945 1.5781 1.4922 3.6914 2.2969 5.8633 2.2266 0.67969-0.003906 1.3594-0.066406 2.0312-0.1875 2.9922-0.60547 5.7383-2.082 7.8945-4.2383 2.1602-2.1602 3.6328-4.9023 4.2422-7.8945 0.66016-2.8086-0.10547-5.7578-2.0391-7.8945-3.668-3.668-10.91-2.668-15.789 2.1953l-0.003906 0.003907c-2.1797 2.1406-3.6562 4.8945-4.2383 7.8945zm4.9219 0.87891c0.41016-1.9922 1.4023-3.8164 2.8555-5.2383 1.6836-1.7617 3.9766-2.8203 6.4141-2.957 0.83594-0.058593 1.6641 0.21484 2.3008 0.76172 0.76172 0.98828 1.0078 2.2773 0.66797 3.4766-0.87891 4.0508-4.043 7.2148-8.0977 8.0898-1.1992 0.34375-2.4922 0.097656-3.4766-0.66797-0.75391-0.98438-1-2.2695-0.66406-3.4648z"/>
        <path d="m63.848 36.031c0.46484 0.46875 1.1016 0.73438 1.7656 0.73047 0.33203 0.003906 0.66016-0.066407 0.96484-0.19922 0.30078-0.125 0.57031-0.30469 0.80078-0.53125 0.23828-0.22266 0.42188-0.49609 0.53516-0.80078 0.13281-0.30469 0.19922-0.63281 0.19922-0.96875 0-0.66016-0.26562-1.293-0.73438-1.7617-0.99219-0.9375-2.5391-0.9375-3.5312 0-0.46875 0.46875-0.73438 1.1016-0.73438 1.7617 0 0.33594 0.066407 0.66406 0.19922 0.96875 0.125 0.29688 0.30859 0.57031 0.53516 0.80078z"/>
        <path d="m95.551 1.1133-37.773 18.812c-5.2188 2.5039-8.3477 7.9727-7.8633 13.742l0.70703 10.711-8.332 0.019532h-0.003906c-0.84375-2.5352-2.2656-4.8398-4.1523-6.7305-3.9062-3.7969-9.3008-5.6562-14.715-5.0781-5.7734 0.55859-11.16 3.1445-15.211 7.293-4.1523 4.0508-6.7344 9.4375-7.293 15.211-0.58984 5.418 1.2773 10.816 5.0859 14.715 3.4375 3.3906 8.0977 5.2539 12.926 5.168 0.58984 0 1.1914-0.023437 1.7891-0.078124 1.918-0.17188 3.8047-0.58594 5.6172-1.2305-1.3398 3.4062-1.6914 7.125-1.0078 10.727 0.6875 3.5977 2.375 6.9297 4.875 9.6055 3.457 3.3789 8.1211 5.2344 12.949 5.1484 6.4062-0.11328 12.512-2.75 16.984-7.3359 8.8555-8.8633 9.8398-22.289 2.1953-29.934-1.8828-1.8789-4.1758-3.3008-6.6992-4.1484v-8.332l10.73 0.71094c0.30859 0.015625 0.61328 0.027344 0.92188 0.027344v-0.003907c5.4258 0.11328 10.418-2.957 12.77-7.8477l18.848-37.82c0.48047-0.96484 0.28906-2.125-0.46875-2.8867-0.75781-0.76172-1.9219-0.95312-2.8789-0.46484zm-52.332 48.266 7.4258-0.015625v7.4141c-1.0078-0.074219-2.0156-0.074219-3.0195 0-1.9219 0.16797-3.8086 0.57812-5.625 1.2227 0.96875-2.7656 1.3828-5.6953 1.2188-8.6211zm-22.914 20.539c-3.9531 0.45703-7.9023-0.88281-10.766-3.6445-2.7578-2.8633-4.0938-6.8125-3.6406-10.762 0.46094-4.5938 2.5312-8.8789 5.8398-12.094 3.2188-3.3164 7.5-5.3828 12.094-5.8438 0.46094-0.039063 0.91016-0.058594 1.3594-0.058594 3.5078-0.082031 6.8984 1.2539 9.4102 3.6992 5.6953 5.6953 4.7109 15.949-2.1992 22.859l-0.003906 0.003906c-3.2148 3.3125-7.5 5.3828-12.094 5.8398zm38.488-4.5039c5.6953 5.6953 4.7109 15.949-2.1953 22.859-6.9062 6.9102-17.168 7.8945-22.859 2.1992-5.6914-5.6914-4.7109-15.949 2.1992-22.859 3.2148-3.3164 7.4961-5.3867 12.094-5.8438 0.46094-0.039062 0.91016-0.058593 1.3594-0.058593 3.5039-0.082032 6.8945 1.2539 9.4023 3.7031zm16.781-25.332v-0.003906c-1.6445 3.3516-5.1758 5.3477-8.8906 5.0234l-11.055-0.73047-0.72656-11.031v0.003906c-0.32812-3.7383 1.6836-7.293 5.0625-8.9297l31.137-15.504z"/>
        <text x="0.0" y="117.5" font-size="5.0" font-weight="bold" font-family="Arbeit Regular, Helvetica, Arial-Unicode, Arial, Sans-serif" fill="#000000">Created by Atif Arshad</text><text x="0.0" y="122.5" font-size="5.0" font-weight="bold" font-family="Arbeit Regular, Helvetica, Arial-Unicode, Arial, Sans-serif" fill="#000000">from Noun Project</text>
    </symbol>

    <symbol id="icon_logo" viewBox="-5.0 -10.0 110.0 135.0">
        <path d="m73.121 21.832 3.2773 1.8945 1.8867 3.2695c1.0586 1.8672 3.043 3.0117 5.1875 3 2.1445 0.015625 4.1328-1.1328 5.1953-2.9961l1.8906-3.2695 3.2695-1.8945c1.8477-1.0742 2.9883-3.0508 2.9883-5.1875 0-2.1406-1.1406-4.1172-2.9883-5.1914l-3.2695-1.8906-1.8906-3.2773c-1.0625-1.8633-3.0469-3.0117-5.1914-3-2.1445-0.011718-4.1289 1.1367-5.1914 3l-1.8867 3.2734-3.2773 1.8906h0.003906c-1.8516 1.0742-2.9922 3.0508-2.9922 5.1914 0 2.1367 1.1406 4.1172 2.9922 5.1875zm2.5-6.0508 3.8555-2.2266v0.003906c0.37891-0.21875 0.69531-0.53516 0.91406-0.91406l2.2227-3.8516v-0.003907c0.17188-0.3125 0.50391-0.50391 0.85938-0.49609 0.35938-0.007813 0.69141 0.18359 0.86328 0.49609l2.2227 3.8516v0.003906c0.21875 0.37891 0.53516 0.69531 0.91406 0.91406l3.8516 2.2266c0.30078 0.17969 0.48828 0.50391 0.48828 0.85938 0 0.35156-0.1875 0.67969-0.48828 0.85938l-3.8516 2.2266c-0.37891 0.21875-0.69531 0.53516-0.91406 0.91797l-2.2266 3.8477c-0.17188 0.3125-0.50391 0.50391-0.86328 0.5-0.35547 0.007812-0.6875-0.1875-0.85938-0.5l-2.2227-3.8516v0.003907c-0.21875-0.38281-0.53516-0.69922-0.91406-0.91797l-3.8555-2.2266c-0.30469-0.17969-0.48828-0.50781-0.48828-0.85938 0-0.35547 0.18359-0.67969 0.48828-0.85938z"/>
        <path d="m20.43 82.738-1.9297-1.1172-1.1172-1.9375c-1.0625-1.8672-3.0469-3.0117-5.1914-3-2.1445-0.011719-4.1289 1.1367-5.1875 3l-1.1172 1.9336-1.9375 1.1172c-1.8516 1.0703-2.9922 3.0508-2.9922 5.1914s1.1406 4.1172 2.9922 5.1914l1.9375 1.1172 1.1172 1.9297c1.0586 1.8633 3.043 3.0117 5.1875 3 2.1445 0.011719 4.1289-1.1367 5.1914-3l1.1133-1.9336 1.9336-1.1133c1.8516-1.0742 2.9922-3.0508 2.9922-5.1914s-1.1406-4.1211-2.9922-5.1914zm-2.5 6.0547-2.5117 1.4492v-0.003907c-0.38281 0.21875-0.69922 0.53516-0.91797 0.91406l-1.4453 2.5117v0.003907c-0.17578 0.3125-0.50781 0.50391-0.86328 0.5-0.35547 0-0.6875-0.19141-0.85938-0.5l-1.4492-2.5117v-0.003906c-0.21875-0.37891-0.53516-0.69531-0.91797-0.91406l-2.5117-1.4492h0.003906c-0.30469-0.17969-0.49219-0.50781-0.49219-0.85937 0-0.35547 0.1875-0.68359 0.49219-0.86328l2.5117-1.4531c0.38281-0.21875 0.69922-0.53125 0.91797-0.91406l1.4492-2.5117c0.17969-0.30859 0.50781-0.49609 0.86328-0.49609s0.68359 0.1875 0.86328 0.49609l1.4453 2.5117h0.003907c0.21875 0.37891 0.53516 0.69531 0.91406 0.91406l2.5117 1.4531h0.003906c0.30469 0.17969 0.49219 0.50781 0.49219 0.86328 0 0.35156-0.1875 0.67969-0.49219 0.85937z"/>
        <path d="m95.934 50.152c-3.0508 0.78906-6.1836 1.1914-9.332 1.2031-10.098-0.015625-19.777-4.0312-26.914-11.172s-11.152-16.82-11.164-26.918c0.011718-3.1484 0.41797-6.2812 1.1992-9.332 0.21484-0.85547-0.03125-1.7578-0.65625-2.3828-0.62109-0.62109-1.5273-0.87109-2.3789-0.65234-9.8906 2.4922-18.574 8.4102-24.504 16.707-5.9336 8.293-8.7305 18.426-7.8945 28.59 0.83984 10.164 5.2578 19.699 12.465 26.91 7.2109 7.2109 16.746 11.633 26.91 12.473 10.164 0.83984 20.297-1.9531 28.59-7.8828 8.2969-5.9336 14.223-14.613 16.715-24.504 0.21484-0.85156-0.039062-1.7578-0.66406-2.3789-0.625-0.61328-1.5195-0.86328-2.3711-0.66016zm-38.699 30.582c-12.012 0.011719-23.324-5.6484-30.52-15.266-7.1953-9.6172-9.4297-22.07-6.0273-33.59 3.4023-11.52 12.047-20.754 23.312-24.918-0.32422 2.0859-0.48828 4.1953-0.48828 6.3047 0.011719 11.426 4.5547 22.383 12.637 30.461 8.0781 8.0781 19.035 12.621 30.461 12.629 2.1133-0.003907 4.2188-0.16797 6.3086-0.49219-2.6875 7.3008-7.5508 13.598-13.934 18.047-6.3789 4.4453-13.973 6.8281-21.75 6.8242z"/>
        <text x="0.0" y="117.5" font-size="5.0" font-weight="bold" font-family="Arbeit Regular, Helvetica, Arial-Unicode, Arial, Sans-serif" fill="#000000">Created by Atif Arshad</text><text x="0.0" y="122.5" font-size="5.0" font-weight="bold" font-family="Arbeit Regular, Helvetica, Arial-Unicode, Arial, Sans-serif" fill="#000000">from Noun Project</text>
    </symbol>

    <symbol id="icon_worldbuild" viewBox="-5.0 -10.0 110.0 135.0">
        <path d="m75.875 38c-0.10547-0.25781-0.24609-0.49609-0.42578-0.70703-2.8398-2.8516-6.3867-4.9062-10.277-5.9492l-1.418-0.51172 0.003906-0.003906c-3.0078-1.2891-6.5078-0.53516-8.7148 1.8828-3.0352 3.2734-3.7383 6.375-1.9336 8.5117l0.69141 0.79688c1.2539 1.4297 1.6133 1.8984 1.5352 3.1719-0.085938 0.5625-0.21484 1.1211-0.38281 1.6641-0.73828 2.8594-2.2812 8.8125 2.668 10.18 0.38672 0.10938 0.79297 0.16406 1.1953 0.16406 1.4062-0.097657 2.7539-0.59375 3.8867-1.4297l-1.082-2.2734-1.5859-1.957c-0.23828 0.15234-0.62891 0.39844-0.92578 0.54297h-0.003906c0.074219-1.3477 0.30859-2.6797 0.69922-3.9727 0.25-0.85156 0.42969-1.7227 0.53125-2.6055 0.13672-2.5625-0.87891-5.0508-2.7695-6.7891l-0.35156-0.40625c0.375-0.82031 0.88672-1.5703 1.5195-2.2188 0.8125-0.87109 2.0898-1.1211 3.1719-0.62109l1.582 0.57812v0.003906c2.8906 0.78516 5.5664 2.1953 7.8438 4.1367 0.035157 0.44141-0.33203 0.91016-2.1172 2.2773-1.6719 1.0781-3.0039 2.6094-3.8398 4.418-0.48047 1.5859-2.5312 2.8867-4.332 4.0352l-0.76953 0.48828 1.3594 2.0977 1.332 2.125 0.042968-0.03125 0.72266-0.46484v0.007813c2.8477-1.3711 5.1094-3.7148 6.3789-6.6094 0.57422-0.84375 1.3164-1.5586 2.1758-2.1094 1.957-1.5312 5.2891-4.0898 3.5898-8.4219z"/>
        <path d="m87.23 37.5c0.035156-9.6016-4.4102-18.672-12.02-24.527-7.6133-5.8516-17.52-7.8242-26.789-5.3242-0.11328 0.019531-0.22656 0.046874-0.33594 0.082031-1.7188 0.47656-3.3906 1.1016-5 1.8711l-3.3516-5.8242c-0.83594-1.4336-2.2344-2.4531-3.8555-2.8047-1.6211-0.35547-3.3164-0.011718-4.6719 0.94531-9.2227 6.5078-15.559 16.344-17.668 27.434-2.1094 11.09 0.17188 22.566 6.3633 32.004 6.1914 9.4414 15.805 16.105 26.816 18.59l-3.2188 9.4883v0.003906c-0.96094 2.8281-3.6172 4.7305-6.6016 4.7305h-9c-1.3789 0-2.5 1.1172-2.5 2.5 0 1.3789 1.1211 2.5 2.5 2.5h56.832c1.3789 0 2.5-1.1211 2.5-2.5 0-1.3828-1.1211-2.5-2.5-2.5h-9c-2.9883 0-5.6445-1.9023-6.6055-4.7344l-3.2148-9.4727h0.003906c2.9688-0.66406 5.8594-1.6367 8.625-2.9023 1.5273-0.70312 2.6875-2.0156 3.1992-3.6172 0.49609-1.5742 0.3125-3.2852-0.51172-4.7148l-3.3516-5.8086c8.3555-5.7656 13.352-15.266 13.355-25.418zm-39.645-24.371c1.7148 3.3594 2.0039 7.2695 0.79297 10.84-0.77734 1.6406-2.4219 2.6953-4.2344 2.7188-0.42188 0.019531-0.84766 0-1.2617-0.015625h-0.003906c-2.0195-0.28516-4.0664 0.28516-5.6445 1.5742-1.7812 1.7578-2.543 4.2969-2.0234 6.7422 0.24609 1.332 0.60156 2.6406 1.0625 3.9102 1.4648 4.4727 1.7891 6.5352 0 7.7188l-3.2578 2.1445c-3.2188-6.6055-3.4727-14.273-0.6875-21.078 2.7852-6.8047 8.3359-12.098 15.266-14.555zm18.43 81.039h-19.402c0.69141-0.95703 1.2383-2.0078 1.6211-3.125l3.4766-10.246c1.5273 0.16406 3.0664 0.24609 4.6016 0.25h0.042969c1.5234-0.003906 3.0469-0.085937 4.5625-0.25l3.4766 10.246c0.38281 1.1172 0.92969 2.168 1.6211 3.125zm6.957-22.238c-0.089844 0.26172-0.28125 0.47266-0.53125 0.58594-5.043 2.3203-10.531 3.5234-16.086 3.5312h-0.023438c-10.988 0.007813-21.457-4.6797-28.777-12.879-7.3203-8.1953-10.789-19.129-9.543-30.047 1.25-10.922 7.1016-20.785 16.082-27.121 0.20703-0.15234 0.47266-0.20703 0.72266-0.14844 0.24609 0.054688 0.46094 0.20703 0.58594 0.42578l3.3516 5.8086 0.003906-0.003907c-8.6562 5.9062-13.727 15.801-13.465 26.277 0.26172 10.473 5.8164 20.102 14.758 25.57 8.9375 5.4648 20.043 6.0273 29.484 1.4883l3.3594 5.8242 0.003907-0.003907c0.11719 0.21094 0.14844 0.46094 0.074218 0.69141zm-16.668-8.5117h0.003906c-8.1523-0.007813-15.82-3.8555-20.699-10.383l3.3984-2.2383c5.2773-3.4727 3.3086-9.4766 2-13.449v-0.003906c-0.39062-1.0742-0.69531-2.1758-0.91016-3.2969-0.1875-0.74609 0-1.5352 0.5-2.1211 0.35547-0.30859 0.84375-0.31641 2.0352-0.26172h-0.003906c0.62109 0.035157 1.2422 0.035157 1.8594 0 3.5977-0.15625 6.8125-2.2812 8.3672-5.5234 1.8125-4.6055 1.6758-9.7461-0.37891-14.246 7.1133-1.0508 14.344 0.90625 19.957 5.4023 5.6133 4.4922 9.1094 11.117 9.6445 18.285 0.53906 7.1719-1.9297 14.242-6.8125 19.523-4.8828 5.2773-11.742 8.2891-18.934 8.3125z"/>
        <text x="0.0" y="117.5" font-size="5.0" font-weight="bold" font-family="Arbeit Regular, Helvetica, Arial-Unicode, Arial, Sans-serif" fill="#000000">Created by Atif Arshad</text><text x="0.0" y="122.5" font-size="5.0" font-weight="bold" font-family="Arbeit Regular, Helvetica, Arial-Unicode, Arial, Sans-serif" fill="#000000">from Noun Project</text>
    </symbol>

    <symbol id="icon_profile" viewBox="-5.0 -10.0 110.0 135.0">
        <path d="m81.863 10.535c-5.8672-5.8867-14.176-8.6484-22.398-7.4492-8.2266 1.2031-15.398 6.2227-19.34 13.543-3.9375 7.3164-4.1836 16.066-0.66016 23.594l-36.023 36.023c-0.83203 0.83203-1.3438 1.9336-1.4453 3.1055l-1.125 12.766v0.003906c-0.28516 2.457 1.4609 4.6836 3.9141 5 0.125 0.019531 0.51172 0.039062 0.64844 0.039062l17.699-0.15625c2.543-0.10156 4.625-2.0508 4.8945-4.582l0.74219-8.1875 9.4414-0.082031c1.3008-0.023438 2.543-0.55469 3.457-1.4844l20.125-20.117h-0.003907c7.5273 3.5117 16.273 3.2617 23.586-0.67969s12.328-11.109 13.531-19.328-1.5508-16.523-7.4297-22.395zm-43.73 68.613-9.4648 0.082031c-2.5469 0.09375-4.6328 2.0469-4.8945 4.5781l-0.73438 8.1914-17.152 0.15625 1.0938-12.371 35.121-35.117c0.78125 1.0781 1.6445 2.0977 2.582 3.0469l9.6133 9.6172c0.95312 0.9375 1.9727 1.8008 3.0547 2.5859zm49.805-25.359v-0.003906c-3.9922 3.9922-9.4062 6.2344-15.051 6.2344-5.6484 0-11.062-2.2422-15.055-6.2344l-9.6133-9.6133c-5.375-5.3789-7.4766-13.219-5.5078-20.566 1.9688-7.3438 7.7109-13.082 15.059-15.051 7.3477-1.9688 15.188 0.13281 20.562 5.5117l9.6055 9.6016c3.9883 3.9961 6.2305 9.4102 6.2305 15.059 0 5.6484-2.2422 11.062-6.2305 15.059z"/>
        <path d="m72.238 20.133c-4.957-4.957-12.992-4.957-17.953 0-4.957 4.957-4.957 12.996 0 17.953l9.668 9.668c4.9844 4.8672 12.961 4.8125 17.875-0.125 4.9141-4.9414 4.9297-12.918 0.035156-17.875zm6.1133 24.035c-1.4453 1.4492-3.4102 2.2656-5.4609 2.2656-2.0469 0-4.0117-0.81641-5.4609-2.2656l-9.6055-9.6094c-3.0078-3.0078-3.0117-7.8789-0.007813-10.887 3.0078-3.0078 7.8789-3.0078 10.887-0.003906l9.6289 9.6211c3.0039 3 3.0117 7.8672 0.019531 10.879z"/>
        <text x="0.0" y="117.5" font-size="5.0" font-weight="bold" font-family="Arbeit Regular, Helvetica, Arial-Unicode, Arial, Sans-serif" fill="#000000">Created by Atif Arshad</text><text x="0.0" y="122.5" font-size="5.0" font-weight="bold" font-family="Arbeit Regular, Helvetica, Arial-Unicode, Arial, Sans-serif" fill="#000000">from Noun Project</text>
    </symbol>

  </defs>
</svg>