<svg xmlns="http://www.w3.org/2000/svg" version="1.1" viewBox="-5.0 -10.0 110.0 135.0">
 <path d="m75.875 38c-0.10547-0.25781-0.24609-0.49609-0.42578-0.70703-2.8398-2.8516-6.3867-4.9062-10.277-5.9492l-1.418-0.51172 0.003906-0.003906c-3.0078-1.2891-6.5078-0.53516-8.7148 1.8828-3.0352 3.2734-3.7383 6.375-1.9336 8.5117l0.69141 0.79688c1.2539 1.4297 1.6133 1.8984 1.5352 3.1719-0.085938 0.5625-0.21484 1.1211-0.38281 1.6641-0.73828 2.8594-2.2812 8.8125 2.668 10.18 0.38672 0.10938 0.79297 0.16406 1.1953 0.16406 1.4062-0.097657 2.7539-0.59375 3.8867-1.4297l-1.082-2.2734-1.5859-1.957c-0.23828 0.15234-0.62891 0.39844-0.92578 0.54297h-0.003906c0.074219-1.3477 0.30859-2.6797 0.69922-3.9727 0.25-0.85156 0.42969-1.7227 0.53125-2.6055 0.13672-2.5625-0.87891-5.0508-2.7695-6.7891l-0.35156-0.40625c0.375-0.82031 0.88672-1.5703 1.5195-2.2188 0.8125-0.87109 2.0898-1.1211 3.1719-0.62109l1.582 0.57812v0.003906c2.8906 0.78516 5.5664 2.1953 7.8438 4.1367 0.035157 0.44141-0.33203 0.91016-2.1172 2.2773-1.6719 1.0781-3.0039 2.6094-3.8398 4.418-0.48047 1.5859-2.5312 2.8867-4.332 4.0352l-0.76953 0.48828 1.3594 2.0977 1.332 2.125 0.042968-0.03125 0.72266-0.46484v0.007813c2.8477-1.3711 5.1094-3.7148 6.3789-6.6094 0.57422-0.84375 1.3164-1.5586 2.1758-2.1094 1.957-1.5312 5.2891-4.0898 3.5898-8.4219z"/>
 <path d="m87.23 37.5c0.035156-9.6016-4.4102-18.672-12.02-24.527-7.6133-5.8516-17.52-7.8242-26.789-5.3242-0.11328 0.019531-0.22656 0.046874-0.33594 0.082031-1.7188 0.47656-3.3906 1.1016-5 1.8711l-3.3516-5.8242c-0.83594-1.4336-2.2344-2.4531-3.8555-2.8047-1.6211-0.35547-3.3164-0.011718-4.6719 0.94531-9.2227 6.5078-15.559 16.344-17.668 27.434-2.1094 11.09 0.17188 22.566 6.3633 32.004 6.1914 9.4414 15.805 16.105 26.816 18.59l-3.2188 9.4883v0.003906c-0.96094 2.8281-3.6172 4.7305-6.6016 4.7305h-9c-1.3789 0-2.5 1.1172-2.5 2.5 0 1.3789 1.1211 2.5 2.5 2.5h56.832c1.3789 0 2.5-1.1211 2.5-2.5 0-1.3828-1.1211-2.5-2.5-2.5h-9c-2.9883 0-5.6445-1.9023-6.6055-4.7344l-3.2148-9.4727h0.003906c2.9688-0.66406 5.8594-1.6367 8.625-2.9023 1.5273-0.70312 2.6875-2.0156 3.1992-3.6172 0.49609-1.5742 0.3125-3.2852-0.51172-4.7148l-3.3516-5.8086c8.3555-5.7656 13.352-15.266 13.355-25.418zm-39.645-24.371c1.7148 3.3594 2.0039 7.2695 0.79297 10.84-0.77734 1.6406-2.4219 2.6953-4.2344 2.7188-0.42188 0.019531-0.84766 0-1.2617-0.015625h-0.003906c-2.0195-0.28516-4.0664 0.28516-5.6445 1.5742-1.7812 1.7578-2.543 4.2969-2.0234 6.7422 0.24609 1.332 0.60156 2.6406 1.0625 3.9102 1.4648 4.4727 1.7891 6.5352 0 7.7188l-3.2578 2.1445c-3.2188-6.6055-3.4727-14.273-0.6875-21.078 2.7852-6.8047 8.3359-12.098 15.266-14.555zm18.43 81.039h-19.402c0.69141-0.95703 1.2383-2.0078 1.6211-3.125l3.4766-10.246c1.5273 0.16406 3.0664 0.24609 4.6016 0.25h0.042969c1.5234-0.003906 3.0469-0.085937 4.5625-0.25l3.4766 10.246c0.38281 1.1172 0.92969 2.168 1.6211 3.125zm6.957-22.238c-0.089844 0.26172-0.28125 0.47266-0.53125 0.58594-5.043 2.3203-10.531 3.5234-16.086 3.5312h-0.023438c-10.988 0.007813-21.457-4.6797-28.777-12.879-7.3203-8.1953-10.789-19.129-9.543-30.047 1.25-10.922 7.1016-20.785 16.082-27.121 0.20703-0.15234 0.47266-0.20703 0.72266-0.14844 0.24609 0.054688 0.46094 0.20703 0.58594 0.42578l3.3516 5.8086 0.003906-0.003907c-8.6562 5.9062-13.727 15.801-13.465 26.277 0.26172 10.473 5.8164 20.102 14.758 25.57 8.9375 5.4648 20.043 6.0273 29.484 1.4883l3.3594 5.8242 0.003907-0.003907c0.11719 0.21094 0.14844 0.46094 0.074218 0.69141zm-16.668-8.5117h0.003906c-8.1523-0.007813-15.82-3.8555-20.699-10.383l3.3984-2.2383c5.2773-3.4727 3.3086-9.4766 2-13.449v-0.003906c-0.39062-1.0742-0.69531-2.1758-0.91016-3.2969-0.1875-0.74609 0-1.5352 0.5-2.1211 0.35547-0.30859 0.84375-0.31641 2.0352-0.26172h-0.003906c0.62109 0.035157 1.2422 0.035157 1.8594 0 3.5977-0.15625 6.8125-2.2812 8.3672-5.5234 1.8125-4.6055 1.6758-9.7461-0.37891-14.246 7.1133-1.0508 14.344 0.90625 19.957 5.4023 5.6133 4.4922 9.1094 11.117 9.6445 18.285 0.53906 7.1719-1.9297 14.242-6.8125 19.523-4.8828 5.2773-11.742 8.2891-18.934 8.3125z"/>
<text x="0.0" y="117.5" font-size="5.0" font-weight="bold" font-family="Arbeit Regular, Helvetica, Arial-Unicode, Arial, Sans-serif" fill="#000000">Created by Atif Arshad</text><text x="0.0" y="122.5" font-size="5.0" font-weight="bold" font-family="Arbeit Regular, Helvetica, Arial-Unicode, Arial, Sans-serif" fill="#000000">from Noun Project</text></svg>