<svg xmlns="http://www.w3.org/2000/svg" version="1.1" viewBox="-5.0 -10.0 110.0 135.0">
 <path d="m91.102 0.84375c-9.9141 0.57812-19.586 3.2773-28.367 7.9141-1.3047 0.69141-2.3008 1.8516-2.7891 3.25l-1.7891 5.0781v-0.003907c-0.87109-0.75781-1.9414-1.2422-3.0859-1.3984-1.5234-0.21094-3.0703 0.20312-4.2852 1.1484-6.0742 5.4961-10.785 12.332-13.766 19.961-0.47266 1.1211-0.57422 2.3633-0.29297 3.543l1.0234 5.0742c-2.3594 0.66016-3.9297 2.8906-3.7617 5.332l0.53125 7.5234-0.33203-0.33203c-3.2656-3.2734-8.418-3.7031-12.18-1.0156-3.7617 2.6875-5.0273 7.7031-2.9883 11.852l-7.1328 4.2852c-2.4922 1.5273-4.1094 4.1484-4.3555 7.0586-0.53906 5.375-2.0469 10.605-4.4531 15.445-0.46484 0.95703-0.26953 2.1094 0.48828 2.8594 0.75781 0.75391 1.9102 0.94141 2.8672 0.47266 4.8359-2.4023 10.07-3.9141 15.441-4.457 2.9141-0.24609 5.5352-1.8633 7.0664-4.3555l4.2773-7.1289-0.003906-0.003907c4.1523 2.0391 9.168 0.77344 11.855-2.9883s2.2539-8.918-1.0195-12.18l-0.625-0.625c24.598-0.27344 36.285-13.254 40.332-19.172v-0.003907c1.6406-2.4062 1.2578-5.6562-0.90625-7.6133 1.7891-0.66797 3.7305-1.3906 5.1562-1.9297h0.003907c1.4727-0.53906 2.6641-1.6641 3.2812-3.1094 3.3711-9.0391 5.3516-18.539 5.875-28.172 0.14062-1.6875-0.45703-3.3555-1.6367-4.5703-1.1484-1.1992-2.7695-1.8359-4.4297-1.7383zm-66.434 86.672c-0.72266 1.1367-1.9414 1.8633-3.2852 1.9609-3.8789 0.39063-7.6992 1.2383-11.383 2.5234 1.2812-3.6797 2.125-7.5 2.5195-11.375 0.089844-1.3477 0.8125-2.5664 1.9453-3.293l7.7148-4.6289 7.0977 7.0977zm15.863-9.8672c-0.83984 0.84375-1.9805 1.3164-3.168 1.3164s-2.3281-0.47266-3.168-1.3164l-9.8633-9.8555c-1.7461-1.75-1.7461-4.5859 0-6.332 1.75-1.75 4.5859-1.75 6.3359 0l9.8477 9.8711c0.84375 0.83984 1.3164 1.9805 1.3164 3.168s-0.47266 2.3281-1.3164 3.168zm46.16-44.285c-0.085937 0.19531-0.25391 0.34375-0.45312 0.40625-3.4453 1.3047-9.8984 3.6953-9.9023 3.6953h-0.003907c-0.90234 0.33594-1.5352 1.1602-1.6211 2.1211-0.082032 0.96094 0.39062 1.8867 1.2227 2.375l3.4102 2.0195c0.20312 0.11328 0.35156 0.3125 0.39844 0.54297 0.058593 0.23047 0.011718 0.47266-0.125 0.66797-3.6133 5.293-14.195 16.91-36.828 16.984l39.375-43.914c0.46484-0.49219 0.71484-1.1484 0.6875-1.8242-0.023437-0.67969-0.32422-1.3164-0.82812-1.7656-0.50391-0.45312-1.1719-0.67969-1.8477-0.63281-0.67578 0.050782-1.3008 0.36719-1.7344 0.88672l-38.852 43.332-0.49609-8-0.003906 0.003907c2.6641-0.73438 4.2695-3.4414 3.6406-6.1328l-1.1328-4.8867c-0.042968-0.16406-0.027344-0.33594 0.035156-0.49219 2.6836-6.8203 6.8633-12.953 12.234-17.941 0.15234-0.11719 0.34766-0.16406 0.53516-0.13672 0.23438 0.027344 0.44922 0.14453 0.59766 0.32812l2 2.6875c0.54688 0.75 1.4648 1.1289 2.3789 0.98047 0.91406-0.14062 1.6758-0.76953 1.9844-1.6406l3.3047-9.3594c0.070312-0.21484 0.21875-0.39062 0.41406-0.49609 8.1445-4.3008 17.117-6.8008 26.312-7.3359 0.1875-0.058594 0.44141 0.11719 0.55469 0.22656h-0.003907c0.17188 0.17969 0.25781 0.42188 0.23828 0.66797-0.48047 9.1016-2.332 18.082-5.4922 26.633z"/>
<text x="0.0" y="117.5" font-size="5.0" font-weight="bold" font-family="Arbeit Regular, Helvetica, Arial-Unicode, Arial, Sans-serif" fill="#000000">Created by Atif Arshad</text><text x="0.0" y="122.5" font-size="5.0" font-weight="bold" font-family="Arbeit Regular, Helvetica, Arial-Unicode, Arial, Sans-serif" fill="#000000">from Noun Project</text></svg>