<svg xmlns="http://www.w3.org/2000/svg" version="1.1" viewBox="-5.0 -10.0 110.0 135.0">
 <path d="m98.945 25.812c-0.019531-0.042969-0.058593-0.078125-0.082031-0.125v0.003906c-0.13672-0.26172-0.31641-0.49219-0.53125-0.69141 0 0-0.019531-0.035156-0.035156-0.046875l-25.488-22.219c-0.58594-0.59766-1.2969-1.0547-2.082-1.3359-0.058593-0.019532-0.10547-0.023438-0.15625-0.046876-0.82812-0.33203-1.7109-0.50781-2.6055-0.51953h-23.797c-4.1992 0.007813-8.2227 1.6758-11.191 4.6445s-4.6367 6.9922-4.6445 11.191v24.609h-18.332c-1.9844 0.003906-3.9141 0.66406-5.4883 1.8711-0.12109 0.085937-0.23438 0.17969-0.33594 0.28516-2.0977 1.7188-3.3203 4.2852-3.332 7v27.113c0 5.0586 4.0977 9.1641 9.1562 9.1758h18.75c0.77344 3.5195 2.7188 6.668 5.5234 8.9297 2.8008 2.2617 6.293 3.5 9.8945 3.5156h39.164c4.1992-0.007813 8.2227-1.6758 11.191-4.6445s4.6367-6.9922 4.6445-11.191v-56.504c-0.003907-0.35156-0.078125-0.69531-0.22266-1.0156zm-26.73-16.965 17.785 15.484h-13.602c-2.2969-0.003906-4.1602-1.8672-4.1641-4.1641zm-6.8125 37.43-24.227 13.688c-1.2812 0.71094-2.8359 0.71094-4.1172 0l-24.242-13.688zm-55.402 35.445c-2.3008-0.003906-4.1641-1.8672-4.168-4.1641v-27.117c0.019531-0.71484 0.22656-1.4141 0.60547-2.0234l28.172 15.914c2.8008 1.543 6.1992 1.543 9 0l28.164-15.914v0.003906c0.37891 0.60938 0.58594 1.3086 0.60156 2.0234v27.113c-0.003906 2.3008-1.8672 4.1641-4.1641 4.168zm84.168 1.6094c-0.007813 5.9805-4.8555 10.828-10.836 10.836h-39.164c-4.6641-0.019531-8.7891-3.0156-10.246-7.4453h34.301c5.0586-0.007812 9.1602-4.1055 9.168-9.1641v-27.117c-0.015625-2.7109-1.2383-5.2773-3.332-7-0.10547-0.097656-0.21875-0.19141-0.33594-0.26953-1.5742-1.2148-3.5039-1.875-5.4922-1.8789h-34.898v-24.625c0.007813-5.9805 4.8555-10.828 10.836-10.836h23.051v14.332l-0.003906 0.003907c0.007812 5.0586 4.1094 9.1602 9.168 9.1641h17.785z"/>
 <path d="m11.109 33.828c4.1562 0 7.9062-2.5039 9.4961-6.3438 1.5898-3.8398 0.71094-8.2578-2.2305-11.199-2.9375-2.9375-7.3594-3.8164-11.199-2.2266-3.8398 1.5898-6.3438 5.3398-6.3438 9.4961 0.007813 5.6719 4.6055 10.27 10.277 10.273zm0-15.555v0.003906c2.1367 0 4.0586 1.2852 4.875 3.2578 0.81641 1.9688 0.36719 4.2383-1.1445 5.75-1.5078 1.5078-3.7773 1.9609-5.75 1.1445-1.9727-0.81641-3.2578-2.7422-3.2578-4.875 0.003907-2.9141 2.3672-5.2734 5.2773-5.2773z"/>
<text x="0.0" y="117.5" font-size="5.0" font-weight="bold" font-family="Arbeit Regular, Helvetica, Arial-Unicode, Arial, Sans-serif" fill="#000000">Created by Atif Arshad</text><text x="0.0" y="122.5" font-size="5.0" font-weight="bold" font-family="Arbeit Regular, Helvetica, Arial-Unicode, Arial, Sans-serif" fill="#000000">from Noun Project</text></svg>