<svg xmlns="http://www.w3.org/2000/svg" version="1.1" viewBox="-5.0 -10.0 110.0 135.0">
 <path d="m91.023 70.828-10-5.2539c-1.5586-0.80859-2.7422-2.1875-3.3047-3.8477-0.41406-1.2188-1.375-2.1758-2.5977-2.5781-1.2227-0.40625-2.5625-0.21875-3.625 0.51172l-7.6875-7.6875c5.6992-9.5781 6.3438-21.34 1.7188-31.484-4.6211-10.141-13.922-17.371-24.887-19.355-10.969-1.9844-22.211 1.5352-30.094 9.4141-7.8789 7.8828-11.398 19.125-9.4141 30.094 1.9844 10.965 9.2148 20.266 19.355 24.887 10.145 4.625 21.906 3.9805 31.484-1.7188l7.6953 7.6875c-0.73438 1.0586-0.92578 2.4023-0.52344 3.625 0.40625 1.2227 1.3594 2.1836 2.5781 2.5977 1.6641 0.56641 3.0469 1.75 3.8555 3.3125l5.2383 9.9648c1.2734 2.4766 3.2109 4.5508 5.5938 5.9961 2.3789 1.4414 5.1133 2.1953 7.8984 2.1797 0.4375 0 0.87891 0 1.332-0.058594l0.003906 0.003907c3.9453-0.35156 7.582-2.2891 10.078-5.3633 2.9102-3.5312 4.0625-8.1875 3.1289-12.668-0.91797-4.4297-3.7969-8.2031-7.8281-10.258zm-56.309-7.2383c-7.6602 0-15.008-3.043-20.422-8.457-5.418-5.418-8.4609-12.766-8.4648-20.426 0-7.6602 3.043-15.008 8.4609-20.426 5.418-5.4141 12.766-8.457 20.426-8.457s15.008 3.043 20.422 8.4609c5.418 5.418 8.4609 12.766 8.4609 20.426-0.011718 7.6562-3.0547 14.996-8.4688 20.41-5.4141 5.4141-12.754 8.4609-20.414 8.4688zm28.418 4.3008-6.9727-6.9727c1.7422-1.4297 3.3359-3.0273 4.7617-4.7695l6.9727 6.9727zm28.703 22.707c-1.6367 2.0234-4.0234 3.3008-6.6211 3.5391-4.1172 0.38672-8.0586-1.7656-9.9531-5.4453l-5.25-10c-1.1875-2.2812-3.0898-4.1133-5.4141-5.2109l8.9062-8.9023c1.0938 2.3281 2.9219 4.2344 5.207 5.4219l10 5.2617c2.7109 1.3867 4.6484 3.9336 5.2539 6.918 0.60547 2.9844-0.17969 6.082-2.1367 8.418z"/>
<text x="0.0" y="117.5" font-size="5.0" font-weight="bold" font-family="Arbeit Regular, Helvetica, Arial-Unicode, Arial, Sans-serif" fill="#000000">Created by Atif Arshad</text><text x="0.0" y="122.5" font-size="5.0" font-weight="bold" font-family="Arbeit Regular, Helvetica, Arial-Unicode, Arial, Sans-serif" fill="#000000">from Noun Project</text></svg>