<svg xmlns="http://www.w3.org/2000/svg" version="1.1" viewBox="-5.0 -10.0 110.0 135.0">
 <path d="m73.121 21.832 3.2773 1.8945 1.8867 3.2695c1.0586 1.8672 3.043 3.0117 5.1875 3 2.1445 0.015625 4.1328-1.1328 5.1953-2.9961l1.8906-3.2695 3.2695-1.8945c1.8477-1.0742 2.9883-3.0508 2.9883-5.1875 0-2.1406-1.1406-4.1172-2.9883-5.1914l-3.2695-1.8906-1.8906-3.2773c-1.0625-1.8633-3.0469-3.0117-5.1914-3-2.1445-0.011718-4.1289 1.1367-5.1914 3l-1.8867 3.2734-3.2773 1.8906h0.003906c-1.8516 1.0742-2.9922 3.0508-2.9922 5.1914 0 2.1367 1.1406 4.1172 2.9922 5.1875zm2.5-6.0508 3.8555-2.2266v0.003906c0.37891-0.21875 0.69531-0.53516 0.91406-0.91406l2.2227-3.8516v-0.003907c0.17188-0.3125 0.50391-0.50391 0.85938-0.49609 0.35938-0.007813 0.69141 0.18359 0.86328 0.49609l2.2227 3.8516v0.003906c0.21875 0.37891 0.53516 0.69531 0.91406 0.91406l3.8516 2.2266c0.30078 0.17969 0.48828 0.50391 0.48828 0.85938 0 0.35156-0.1875 0.67969-0.48828 0.85938l-3.8516 2.2266c-0.37891 0.21875-0.69531 0.53516-0.91406 0.91797l-2.2266 3.8477c-0.17188 0.3125-0.50391 0.50391-0.86328 0.5-0.35547 0.007812-0.6875-0.1875-0.85938-0.5l-2.2227-3.8516v0.003907c-0.21875-0.38281-0.53516-0.69922-0.91406-0.91797l-3.8555-2.2266c-0.30469-0.17969-0.48828-0.50781-0.48828-0.85938 0-0.35547 0.18359-0.67969 0.48828-0.85938z"/>
 <path d="m20.43 82.738-1.9297-1.1172-1.1172-1.9375c-1.0625-1.8672-3.0469-3.0117-5.1914-3-2.1445-0.011719-4.1289 1.1367-5.1875 3l-1.1172 1.9336-1.9375 1.1172c-1.8516 1.0703-2.9922 3.0508-2.9922 5.1914s1.1406 4.1172 2.9922 5.1914l1.9375 1.1172 1.1172 1.9297c1.0586 1.8633 3.043 3.0117 5.1875 3 2.1445 0.011719 4.1289-1.1367 5.1914-3l1.1133-1.9336 1.9336-1.1133c1.8516-1.0742 2.9922-3.0508 2.9922-5.1914s-1.1406-4.1211-2.9922-5.1914zm-2.5 6.0547-2.5117 1.4492v-0.003907c-0.38281 0.21875-0.69922 0.53516-0.91797 0.91406l-1.4453 2.5117v0.003907c-0.17578 0.3125-0.50781 0.50391-0.86328 0.5-0.35547 0-0.6875-0.19141-0.85938-0.5l-1.4492-2.5117v-0.003906c-0.21875-0.37891-0.53516-0.69531-0.91797-0.91406l-2.5117-1.4492h0.003906c-0.30469-0.17969-0.49219-0.50781-0.49219-0.85937 0-0.35547 0.1875-0.68359 0.49219-0.86328l2.5117-1.4531c0.38281-0.21875 0.69922-0.53125 0.91797-0.91406l1.4492-2.5117c0.17969-0.30859 0.50781-0.49609 0.86328-0.49609s0.68359 0.1875 0.86328 0.49609l1.4453 2.5117h0.003907c0.21875 0.37891 0.53516 0.69531 0.91406 0.91406l2.5117 1.4531h0.003906c0.30469 0.17969 0.49219 0.50781 0.49219 0.86328 0 0.35156-0.1875 0.67969-0.49219 0.85937z"/>
 <path d="m95.934 50.152c-3.0508 0.78906-6.1836 1.1914-9.332 1.2031-10.098-0.015625-19.777-4.0312-26.914-11.172s-11.152-16.82-11.164-26.918c0.011718-3.1484 0.41797-6.2812 1.1992-9.332 0.21484-0.85547-0.03125-1.7578-0.65625-2.3828-0.62109-0.62109-1.5273-0.87109-2.3789-0.65234-9.8906 2.4922-18.574 8.4102-24.504 16.707-5.9336 8.293-8.7305 18.426-7.8945 28.59 0.83984 10.164 5.2578 19.699 12.465 26.91 7.2109 7.2109 16.746 11.633 26.91 12.473 10.164 0.83984 20.297-1.9531 28.59-7.8828 8.2969-5.9336 14.223-14.613 16.715-24.504 0.21484-0.85156-0.039062-1.7578-0.66406-2.3789-0.625-0.61328-1.5195-0.86328-2.3711-0.66016zm-38.699 30.582c-12.012 0.011719-23.324-5.6484-30.52-15.266-7.1953-9.6172-9.4297-22.07-6.0273-33.59 3.4023-11.52 12.047-20.754 23.312-24.918-0.32422 2.0859-0.48828 4.1953-0.48828 6.3047 0.011719 11.426 4.5547 22.383 12.637 30.461 8.0781 8.0781 19.035 12.621 30.461 12.629 2.1133-0.003907 4.2188-0.16797 6.3086-0.49219-2.6875 7.3008-7.5508 13.598-13.934 18.047-6.3789 4.4453-13.973 6.8281-21.75 6.8242z"/>
<text x="0.0" y="117.5" font-size="5.0" font-weight="bold" font-family="Arbeit Regular, Helvetica, Arial-Unicode, Arial, Sans-serif" fill="#000000">Created by Atif Arshad</text><text x="0.0" y="122.5" font-size="5.0" font-weight="bold" font-family="Arbeit Regular, Helvetica, Arial-Unicode, Arial, Sans-serif" fill="#000000">from Noun Project</text></svg>