<svg xmlns="http://www.w3.org/2000/svg" version="1.1" viewBox="-5.0 -10.0 110.0 135.0">
 <path d="m81.863 10.535c-5.8672-5.8867-14.176-8.6484-22.398-7.4492-8.2266 1.2031-15.398 6.2227-19.34 13.543-3.9375 7.3164-4.1836 16.066-0.66016 23.594l-36.023 36.023c-0.83203 0.83203-1.3438 1.9336-1.4453 3.1055l-1.125 12.766v0.003906c-0.28516 2.457 1.4609 4.6836 3.9141 5 0.125 0.019531 0.51172 0.039062 0.64844 0.039062l17.699-0.15625c2.543-0.10156 4.625-2.0508 4.8945-4.582l0.74219-8.1875 9.4414-0.082031c1.3008-0.023438 2.543-0.55469 3.457-1.4844l20.125-20.117h-0.003907c7.5273 3.5117 16.273 3.2617 23.586-0.67969s12.328-11.109 13.531-19.328-1.5508-16.523-7.4297-22.395zm-43.73 68.613-9.4648 0.082031c-2.5469 0.09375-4.6328 2.0469-4.8945 4.5781l-0.73438 8.1914-17.152 0.15625 1.0938-12.371 35.121-35.117c0.78125 1.0781 1.6445 2.0977 2.582 3.0469l9.6133 9.6172c0.95312 0.9375 1.9727 1.8008 3.0547 2.5859zm49.805-25.359v-0.003906c-3.9922 3.9922-9.4062 6.2344-15.051 6.2344-5.6484 0-11.062-2.2422-15.055-6.2344l-9.6133-9.6133c-5.375-5.3789-7.4766-13.219-5.5078-20.566 1.9688-7.3438 7.7109-13.082 15.059-15.051 7.3477-1.9688 15.188 0.13281 20.562 5.5117l9.6055 9.6016c3.9883 3.9961 6.2305 9.4102 6.2305 15.059 0 5.6484-2.2422 11.062-6.2305 15.059z"/>
 <path d="m72.238 20.133c-4.957-4.957-12.992-4.957-17.953 0-4.957 4.957-4.957 12.996 0 17.953l9.668 9.668c4.9844 4.8672 12.961 4.8125 17.875-0.125 4.9141-4.9414 4.9297-12.918 0.035156-17.875zm6.1133 24.035c-1.4453 1.4492-3.4102 2.2656-5.4609 2.2656-2.0469 0-4.0117-0.81641-5.4609-2.2656l-9.6055-9.6094c-3.0078-3.0078-3.0117-7.8789-0.007813-10.887 3.0078-3.0078 7.8789-3.0078 10.887-0.003906l9.6289 9.6211c3.0039 3 3.0117 7.8672 0.019531 10.879z"/>
<text x="0.0" y="117.5" font-size="5.0" font-weight="bold" font-family="Arbeit Regular, Helvetica, Arial-Unicode, Arial, Sans-serif" fill="#000000">Created by Atif Arshad</text><text x="0.0" y="122.5" font-size="5.0" font-weight="bold" font-family="Arbeit Regular, Helvetica, Arial-Unicode, Arial, Sans-serif" fill="#000000">from Noun Project</text></svg>