<svg xmlns="http://www.w3.org/2000/svg" version="1.1" viewBox="-5.0 -10.0 110.0 135.0">
 <path d="m92.957 75.504h-24.738v-3.6055c-0.007812-3.2852-1.7812-6.3125-4.6445-7.9258v-22.574c-0.007813-5.0586-4.1055-9.1602-9.168-9.1641h-1.9062v-3.7734c1.2031-0.21484 2.3633-0.60938 3.4453-1.1719 3.2266-1.6602 5.2383-4.9961 5.2031-8.6211-0.23047-3.0781-1.5352-5.9766-3.6836-8.1875-1.9219-1.9102-3.0859-4.4492-3.2773-7.1484-0.003906-0.80859-0.39844-1.5703-1.0586-2.0391-0.66406-0.46484-1.5117-0.58203-2.2773-0.3125-3.9922 1.5156-7.4141 4.2344-9.7891 7.7812-3.4336 5.8398-3.2383 14.301 3.0312 18.355v0.003906c1.0469 0.65234 2.207 1.1133 3.418 1.3516v3.7617h-1.9062c-5.0586 0.003906-9.1602 4.1055-9.1641 9.1641v22.574c-2.8672 1.6133-4.6484 4.6406-4.6602 7.9258v3.6016l-24.738 0.003906c-1.7656-0.003906-3.4375 0.80078-4.5352 2.1836-1.1328 1.418-1.5547 3.2734-1.1484 5.043 1.0547 4.6797 3.6719 8.8633 7.4258 11.852s8.418 4.6055 13.215 4.5859h56c4.7969 0.019531 9.457-1.5977 13.211-4.5859 3.75-2.9922 6.3711-7.1719 7.4219-11.852 0.41016-1.7656-0.007812-3.625-1.1406-5.0391-1.0977-1.3867-2.7695-2.1914-4.5352-2.1875zm-46.164-52.586c-4.082-2.6445-3.2695-8.5-1.4336-11.625 1.1055-1.7266 2.6094-3.168 4.3789-4.1992 0.84375 2.3789 2.1289 4.5781 3.793 6.4805 1.418 1.3555 2.3398 3.1484 2.6172 5.0938 0.023437 1.7852-0.98438 3.4297-2.5898 4.2188-0.33984 0.16406-0.69531 0.29688-1.0586 0.40234v-3.0508c0-1.3789-1.1211-2.5-2.5-2.5s-2.5 1.1211-2.5 2.5v2.9766c-0.24219-0.078125-0.48047-0.17969-0.70703-0.29688zm-5.3672 18.484v-0.003906c0.003907-2.3008 1.8672-4.1641 4.168-4.1641h8.8125c2.3008 0 4.1641 1.8633 4.168 4.1641v21.332l-17.148 0.003906zm-4.6484 30.5 0.003906-0.003906c0-2.3008 1.8633-4.1641 4.1641-4.1641h18.109c2.3008 0 4.1641 1.8633 4.1641 4.1641v3.6016l-26.438 0.003906zm41.223 22.266h-56c-3.6641 0.015625-7.2227-1.2188-10.09-3.5-2.8672-2.2812-4.8672-5.4727-5.6719-9.0469-0.070312-0.28516-0.003906-0.58594 0.17578-0.81641 0.15234-0.19531 0.38281-0.30469 0.62891-0.30078h85.914c0.24609-0.003906 0.48047 0.10547 0.62891 0.30078 0.17578 0.23047 0.24219 0.52734 0.17578 0.8125-0.80469 3.5742-2.8047 6.7656-5.6719 9.0508-2.8672 2.2812-6.4258 3.5156-10.09 3.5z"/>
<text x="0.0" y="117.5" font-size="5.0" font-weight="bold" font-family="Arbeit Regular, Helvetica, Arial-Unicode, Arial, Sans-serif" fill="#000000">Created by Atif Arshad</text><text x="0.0" y="122.5" font-size="5.0" font-weight="bold" font-family="Arbeit Regular, Helvetica, Arial-Unicode, Arial, Sans-serif" fill="#000000">from Noun Project</text></svg>