<svg xmlns="http://www.w3.org/2000/svg" version="1.1" viewBox="-5.0 -10.0 110.0 135.0">
 <path d="m89.805 0.83203h-47.199c-5.0586 0.003907-9.1602 4.1055-9.1641 9.168v3.043h-16.578c-4.1992 0.003906-8.2227 1.6758-11.191 4.6445-2.9648 2.9688-4.6367 6.9922-4.6406 11.188v59.742c0.015625 5.832 4.7461 10.547 10.578 10.551h72.781c1.0273-0.003907 1.9492-0.63281 2.3242-1.5859 0.37891-0.95703 0.13281-2.0469-0.61328-2.75-1.7109-1.6289-2.6797-3.8867-2.6797-6.25s0.96875-4.6211 2.6797-6.2539l0.023438-0.03125c0.058594-0.058594 0.097656-0.125 0.14844-0.1875l-0.003907 0.003906c0.14062-0.15625 0.26172-0.33203 0.35547-0.52344 0.042969-0.089844 0.078125-0.1875 0.10938-0.28125 0.066406-0.19922 0.10938-0.41016 0.125-0.61719 0-0.0625 0.035156-0.12109 0.035156-0.1875l0.003907-14.469h2.9102c5.0586-0.007812 9.1602-4.1094 9.1641-9.168v-46.867c-0.003906-5.0625-4.1055-9.1641-9.168-9.168zm-74.668 93.332-3.5273 0.003907c-3.0273-0.074219-5.4414-2.5508-5.4414-5.5781 0-3.0312 2.4141-5.5039 5.4414-5.5781h3.5156c-2.1719 3.3984-2.1719 7.7539 0 11.156zm2.5469-16.164h-6.0742c-1.9766 0.007812-3.9102 0.57031-5.5781 1.6289v-50.754c0.007812-5.9766 4.8516-10.824 10.832-10.832h0.82031zm61.984 16.168h-55.598c-3.0273-0.074219-5.4453-2.5508-5.4453-5.5781 0-3.0312 2.418-5.5039 5.4453-5.5781h55.598c-1.6758 3.5273-1.6758 7.625 0 11.156zm2.2188-16.156h-59.203v-59.969h10.758v38.824c0.003906 5.0586 4.1055 9.1602 9.1641 9.168h39.289zm12.078-21.145c-0.003906 2.3008-1.8672 4.1641-4.168 4.168h-47.191c-2.3008-0.003906-4.1641-1.8672-4.1641-4.168v-46.867c0-2.3008 1.8633-4.1641 4.1641-4.168h47.199c2.2969 0.003907 4.1602 1.8672 4.1641 4.168z"/>
 <path d="m66.199 19.855c-4.7109-3.3203-11.105-2.8711-15.309 1.0742-4.1992 3.9492-5.0469 10.305-2.0234 15.215 0.47266 0.76562 1.9219 3.1055 10.93 9.4102 1.625 1.125 3.2578 2.2422 4.8242 3.2656 0.46484 0.27344 0.99609 0.41797 1.5391 0.41797 0.59766-0.003906 1.1875-0.16797 1.6992-0.47656 1.4609-0.95312 3.0977-2.0781 4.7266-3.207 8.1367-5.6289 10.172-8.0781 11-9.4219v-0.003906c3.0508-4.918 2.2031-11.305-2.0234-15.262-4.2266-3.9531-10.656-4.3789-15.363-1.0117zm13.105 13.668v0.019531h0.003906c-2.7344 3.1445-5.9648 5.8164-9.5703 7.9062-1.2188 0.84766-2.4414 1.6875-3.5469 2.4297-1.1367-0.76172-2.332-1.5977-3.543-2.4219v0.003907c-3.5781-2.1211-6.7969-4.8008-9.5312-7.9375-1.9141-3.1172-1.1641-7.1719 1.7344-9.3984 2.9023-2.2305 7.0117-1.9102 9.5312 0.74219 0.47266 0.5 1.1328 0.78516 1.8203 0.78516s1.3477-0.28516 1.8203-0.78516c2.5117-2.6758 6.6406-3.0117 9.5547-0.78125 2.9102 2.2305 3.6602 6.3086 1.7305 9.4258z"/>
<text x="0.0" y="117.5" font-size="5.0" font-weight="bold" font-family="Arbeit Regular, Helvetica, Arial-Unicode, Arial, Sans-serif" fill="#000000">Created by Atif Arshad</text><text x="0.0" y="122.5" font-size="5.0" font-weight="bold" font-family="Arbeit Regular, Helvetica, Arial-Unicode, Arial, Sans-serif" fill="#000000">from Noun Project</text></svg>