<svg xmlns="http://www.w3.org/2000/svg" version="1.1" viewBox="-5.0 -10.0 110.0 135.0">
 <path d="m72.75 81.93v-3.5117c-0.003906-5.0625-4.1055-9.1641-9.168-9.168h-3.2969v-7.25h15.973c3.2188-0.003906 5.8281-2.6133 5.832-5.832v-8.0352c0.015625-5.418-2.7539-10.465-7.332-13.359l-10.488-6.668h-0.003906c1.4414-3.4297 2.1758-7.1172 2.1602-10.84 0.003907-1.125-0.10547-2.25-0.33203-3.3516v-0.019531c-1.0586-5.1133-4.5234-9.3984-9.2969-11.508-0.097656-0.078125-0.19922-0.15234-0.30859-0.21484-0.089843-0.039063-0.1875-0.050781-0.28125-0.089844-0.33203-0.14062-0.69531-0.21484-1.043-0.33203-0.66406-0.23828-1.3398-0.4375-2.0273-0.58984-0.27734-0.054687-0.55859-0.054687-0.83984-0.09375-0.75781-0.125-1.5273-0.19531-2.2969-0.21484-0.33203 0-0.69141 0.066407-1.0391 0.085938v0.003906c-0.70703 0.027344-1.4102 0.10156-2.1094 0.21875-0.45703 0.089844-0.90234 0.26172-1.3516 0.39453-0.53516 0.12109-1.0625 0.26953-1.582 0.44531-0.066407 0.027344-0.125 0.074219-0.19141 0.10156-0.066406 0.027344-0.14062 0.035157-0.21094 0.066407h-0.003906c-0.082031 0.050781-0.16016 0.10547-0.23828 0.16406-4.7852 2.1055-8.2617 6.3906-9.332 11.508 0 0.019531-0.019531 0.035156-0.023437 0.054687v0.03125-0.003906c-0.22266 1.0977-0.33594 2.2148-0.33594 3.3359-0.015625 3.7188 0.71875 7.4062 2.1602 10.84l-10.492 6.668v-0.003906c-4.5781 2.8984-7.3477 7.9453-7.332 13.363v8.0352-0.003906c0.003906 3.2188 2.6133 5.8281 5.832 5.832h15.969v7.2383h-3.293v0.003907c-5.0586 0.003906-9.1602 4.1055-9.1641 9.168v3.5117c-5.1484 0.85547-9.4727 4.3438-11.398 9.1914-0.73047 1.8164-0.51172 3.8789 0.58203 5.5039 1.082 1.6055 2.8906 2.5664 4.8242 2.5664h57.461c1.9336 0 3.7422-0.96094 4.8242-2.5664 1.0938-1.625 1.3125-3.6875 0.58203-5.5039-1.9297-4.8398-6.2461-8.3203-11.387-9.1719zm-33.938-66.988c0.78125-4.2031 3.9453-7.5664 8.0938-8.6094 0.30078-0.082031 0.59766-0.19922 0.90234-0.26172v0.003907c0.44141-0.074219 0.88672-0.12109 1.3359-0.14062 0.28906-0.023438 0.57812-0.074219 0.87109-0.074219h-0.003906c0.45312 0.015625 0.90625 0.054687 1.3555 0.125 0.28516 0.035156 0.56641 0.039063 0.84766 0.097656v-0.003906c0.38672 0.09375 0.76562 0.20312 1.1406 0.33594 0.33203 0.10156 0.66797 0.18359 1 0.33203 2.7539 1.125 4.9609 3.2812 6.1445 6.0078 0.30078 0.69922 0.53125 1.4258 0.68359 2.1719 0.16016 0.76953 0.24219 1.5508 0.24219 2.3359 0 9.1836-5.2305 16.941-11.426 16.941s-11.422-7.7539-11.422-16.938c0-0.78125 0.078125-1.5586 0.23438-2.3242zm-15.07 42.059c-0.46094 0-0.83203-0.375-0.83203-0.83203v-8.0352c-0.015625-3.7031 1.875-7.1523 5-9.1406l10.262-6.5312v0.003906c2.6094 4.0391 7.0234 6.5547 11.828 6.7461 4.8008-0.19141 9.207-2.7031 11.816-6.7383l10.262 6.5273c3.125 1.9844 5.0117 5.4375 5 9.1406v8.0352-0.003906c0 0.22266-0.089844 0.43359-0.24609 0.58984s-0.36719 0.24609-0.58984 0.24609zm31.543 5v7.2383h-10.57v-7.2383zm-23.035 16.406h0.003906c0.003906-2.3008 1.8672-4.1641 4.168-4.168h27.164-0.003907c2.3008 0.003907 4.1641 1.8672 4.168 4.168v3.2891h-35.496zm47.156 15.391h0.003906c-0.14453 0.22656-0.39844 0.36328-0.66797 0.36328h-57.473c-0.26953 0-0.51953-0.13672-0.66797-0.36328-0.17187-0.25-0.20312-0.57031-0.082031-0.84766 1.5078-3.7852 5.1758-6.2617 9.2461-6.2539h40.484c4.0742-0.011718 7.7383 2.4688 9.2422 6.2539 0.125 0.28125 0.09375 0.60547-0.082032 0.85938z"/>
<text x="0.0" y="117.5" font-size="5.0" font-weight="bold" font-family="Arbeit Regular, Helvetica, Arial-Unicode, Arial, Sans-serif" fill="#000000">Created by Atif Arshad</text><text x="0.0" y="122.5" font-size="5.0" font-weight="bold" font-family="Arbeit Regular, Helvetica, Arial-Unicode, Arial, Sans-serif" fill="#000000">from Noun Project</text></svg>