<svg xmlns="http://www.w3.org/2000/svg" version="1.1" viewBox="-5.0 -10.0 110.0 135.0">
 <path d="m96.668 88.102h-11.391v-14h5.1641c3.0977 0 5.9609-1.6445 7.5273-4.3203 1.5625-2.6719 1.5898-5.9766 0.074219-8.6797l-1.2422-2.2109v0.003906c2.6016-2.7734 3.1055-6.9141 1.2422-10.23l-1.2422-2.2109c2.6016-2.7734 3.1055-6.918 1.2422-10.234l-14-24.887c-1.543-2.7461-4.4492-4.4492-7.6016-4.4492s-6.0625 1.7031-7.6055 4.4492l-5.6172 10-5.6172-9.9805c-1.5391-2.75-4.4492-4.4531-7.6016-4.4531s-6.0586 1.7031-7.6016 4.4531l-5.625 10-5.6133-10h0.003906c-1.543-2.7539-4.4531-4.457-7.6055-4.457s-6.0625 1.7031-7.6055 4.457l-13.996 24.883c-1.8672 3.3164-1.3633 7.4609 1.2422 10.23l-1.2422 2.2031c-1.8672 3.3164-1.3633 7.457 1.2383 10.23l-1.2383 2.2109c-1.5234 2.7031-1.4961 6.0078 0.070313 8.6836s4.4336 4.3203 7.5312 4.3164h5.1602v14h-11.387c-1.3789 0-2.5 1.1211-2.5 2.5 0 1.3828 1.1211 2.5 2.5 2.5h93.336c1.3789 0 2.5-1.1172 2.5-2.5 0-1.3789-1.1211-2.5-2.5-2.5zm-69.27 0h-7.668v-14h7.668zm13.766 0h-8.7656v-14h8.7656zm-2.625-41 2.2617 4.0352v0.003906c0.99219 1.7656 0.38672 4-1.3594 5.0273-1.1719 0.69141-1.5742 2.1914-0.90625 3.3789l2.2617 4.0352 0.003906-0.003906c0.31641 0.55859 0.48047 1.1875 0.47656 1.8281-0.003906 2.0547-1.668 3.7148-3.7188 3.7188h-28c-2.0547 0-3.7227-1.6641-3.7266-3.7188 0-0.63672 0.16406-1.2656 0.47656-1.8242l2.2656-4.0352h0.003906c0.67188-1.1914 0.26953-2.6992-0.91016-3.3945-1.75-1.0234-2.3555-3.2578-1.3594-5.0273l2.2656-4.0352c0.66406-1.1836 0.26172-2.6836-0.90625-3.375-1.1367-0.66797-1.8359-1.8906-1.8398-3.207-0.003906-0.64062 0.16016-1.2656 0.47656-1.8203l14-24.887c0.65625-1.1758 1.8984-1.9062 3.2461-1.9062 1.3477 0 2.5898 0.73047 3.2461 1.9062l14 24.879c0.31641 0.55859 0.48047 1.1875 0.47656 1.8281-0.003907 1.3164-0.70313 2.5352-1.8359 3.207-1.168 0.69531-1.5703 2.1914-0.90234 3.375zm15.297 41h-7.668v-14h7.668zm2.2461-41.637-1.2461 2.2148h-0.003907c-1.8594 3.3164-1.3516 7.4531 1.2461 10.227l-1.2461 2.2148v0.003906c-0.73047 1.3047-1.1133 2.7734-1.1133 4.2695 0.007812 1.2891 0.30469 2.5586 0.86719 3.7188h-9.1758c0.5625-1.1602 0.85938-2.4297 0.86719-3.7188 0-1.4961-0.38672-2.9688-1.1172-4.2734l-1.2422-2.2148c2.6016-2.7695 3.1055-6.9102 1.2422-10.227l-1.2422-2.2148c2.6016-2.7734 3.1055-6.9141 1.2422-10.23l-5.5117-9.8047 7.1094-12.633c0.71094-1.0977 1.9336-1.7617 3.2422-1.7617 1.3125 0 2.5312 0.66406 3.2461 1.7617l7.1055 12.625-5.5195 9.8164c-1.8594 3.3164-1.3516 7.457 1.2461 10.227zm11.523 41.637h-8.7734v-14h8.7695zm12.668 0h-7.668v-14h7.668zm-3.2031-19h-14.637c-2.0547 0-3.7148-1.6641-3.7188-3.7188-0.003906-0.63672 0.16016-1.2656 0.47266-1.8203l2.2695-4.0352c0.67188-1.1875 0.26562-2.6914-0.90625-3.3828-1.7461-1.0273-2.3516-3.2617-1.3633-5.0273l2.2695-4.0352c0.66797-1.1836 0.26562-2.6875-0.90625-3.375-1.7461-1.0273-2.3516-3.2617-1.3633-5.0312l14-24.887c0.65625-1.1758 1.8984-1.9023 3.2461-1.9023s2.5898 0.72656 3.2461 1.9023l14 24.879v0.003906c0.98828 1.7695 0.38281 4.0039-1.3633 5.0352-1.1719 0.69141-1.5742 2.1914-0.90625 3.375l2.2695 4.0352c0.3125 0.55469 0.47266 1.1836 0.47266 1.8203 0.007812 1.3203-0.69141 2.543-1.8359 3.207-1.1719 0.69141-1.5742 2.1953-0.90625 3.3828l2.2695 4.0312c0.64453 1.1523 0.62891 2.5586-0.039063 3.6992-0.66797 1.1406-1.8867 1.8398-3.207 1.8438h-13.367z"/>
<text x="0.0" y="117.5" font-size="5.0" font-weight="bold" font-family="Arbeit Regular, Helvetica, Arial-Unicode, Arial, Sans-serif" fill="#000000">Created by Atif Arshad</text><text x="0.0" y="122.5" font-size="5.0" font-weight="bold" font-family="Arbeit Regular, Helvetica, Arial-Unicode, Arial, Sans-serif" fill="#000000">from Noun Project</text></svg>