<svg xmlns="http://www.w3.org/2000/svg" version="1.1" viewBox="-5.0 -10.0 110.0 135.0">
 <path d="m31.062 44.75c-3.6836-3.6914-10.922-2.668-15.785 2.2031-2.1797 2.1406-3.6602 4.8945-4.2422 7.8945-0.66406 2.8047 0.10156 5.7578 2.0391 7.8906 1.5781 1.4961 3.6875 2.2969 5.8633 2.2266 0.67969 0 1.3633-0.0625 2.0312-0.18359 3-0.58594 5.7539-2.0625 7.8945-4.2422 4.875-4.8711 5.8789-12.098 2.1992-15.789zm-5.7305 12.25c-1.4219 1.4531-3.2461 2.4453-5.2383 2.8555-1.1992 0.34766-2.4922 0.097656-3.4766-0.66406-0.76172-0.98828-1.0078-2.2773-0.66797-3.4766 0.41016-1.9922 1.4023-3.8164 2.8555-5.2422 1.6836-1.7617 3.9766-2.8203 6.4102-2.9609 0.83984-0.054688 1.6641 0.21875 2.3047 0.76172 1.4805 1.4883 0.83203 5.7266-2.1875 8.7266z"/>
 <path d="m35.23 79.043c-0.66016 2.8086 0.10156 5.7578 2.0391 7.8945 1.5781 1.4922 3.6914 2.2969 5.8633 2.2266 0.67969-0.003906 1.3594-0.066406 2.0312-0.1875 2.9922-0.60547 5.7383-2.082 7.8945-4.2383 2.1602-2.1602 3.6328-4.9023 4.2422-7.8945 0.66016-2.8086-0.10547-5.7578-2.0391-7.8945-3.668-3.668-10.91-2.668-15.789 2.1953l-0.003906 0.003907c-2.1797 2.1406-3.6562 4.8945-4.2383 7.8945zm4.9219 0.87891c0.41016-1.9922 1.4023-3.8164 2.8555-5.2383 1.6836-1.7617 3.9766-2.8203 6.4141-2.957 0.83594-0.058593 1.6641 0.21484 2.3008 0.76172 0.76172 0.98828 1.0078 2.2773 0.66797 3.4766-0.87891 4.0508-4.043 7.2148-8.0977 8.0898-1.1992 0.34375-2.4922 0.097656-3.4766-0.66797-0.75391-0.98438-1-2.2695-0.66406-3.4648z"/>
 <path d="m63.848 36.031c0.46484 0.46875 1.1016 0.73438 1.7656 0.73047 0.33203 0.003906 0.66016-0.066407 0.96484-0.19922 0.30078-0.125 0.57031-0.30469 0.80078-0.53125 0.23828-0.22266 0.42188-0.49609 0.53516-0.80078 0.13281-0.30469 0.19922-0.63281 0.19922-0.96875 0-0.66016-0.26562-1.293-0.73438-1.7617-0.99219-0.9375-2.5391-0.9375-3.5312 0-0.46875 0.46875-0.73438 1.1016-0.73438 1.7617 0 0.33594 0.066407 0.66406 0.19922 0.96875 0.125 0.29688 0.30859 0.57031 0.53516 0.80078z"/>
 <path d="m95.551 1.1133-37.773 18.812c-5.2188 2.5039-8.3477 7.9727-7.8633 13.742l0.70703 10.711-8.332 0.019532h-0.003906c-0.84375-2.5352-2.2656-4.8398-4.1523-6.7305-3.9062-3.7969-9.3008-5.6562-14.715-5.0781-5.7734 0.55859-11.16 3.1445-15.211 7.293-4.1523 4.0508-6.7344 9.4375-7.293 15.211-0.58984 5.418 1.2773 10.816 5.0859 14.715 3.4375 3.3906 8.0977 5.2539 12.926 5.168 0.58984 0 1.1914-0.023437 1.7891-0.078124 1.918-0.17188 3.8047-0.58594 5.6172-1.2305-1.3398 3.4062-1.6914 7.125-1.0078 10.727 0.6875 3.5977 2.375 6.9297 4.875 9.6055 3.457 3.3789 8.1211 5.2344 12.949 5.1484 6.4062-0.11328 12.512-2.75 16.984-7.3359 8.8555-8.8633 9.8398-22.289 2.1953-29.934-1.8828-1.8789-4.1758-3.3008-6.6992-4.1484v-8.332l10.73 0.71094c0.30859 0.015625 0.61328 0.027344 0.92188 0.027344v-0.003907c5.4258 0.11328 10.418-2.957 12.77-7.8477l18.848-37.82c0.48047-0.96484 0.28906-2.125-0.46875-2.8867-0.75781-0.76172-1.9219-0.95312-2.8789-0.46484zm-52.332 48.266 7.4258-0.015625v7.4141c-1.0078-0.074219-2.0156-0.074219-3.0195 0-1.9219 0.16797-3.8086 0.57812-5.625 1.2227 0.96875-2.7656 1.3828-5.6953 1.2188-8.6211zm-22.914 20.539c-3.9531 0.45703-7.9023-0.88281-10.766-3.6445-2.7578-2.8633-4.0938-6.8125-3.6406-10.762 0.46094-4.5938 2.5312-8.8789 5.8398-12.094 3.2188-3.3164 7.5-5.3828 12.094-5.8438 0.46094-0.039063 0.91016-0.058594 1.3594-0.058594 3.5078-0.082031 6.8984 1.2539 9.4102 3.6992 5.6953 5.6953 4.7109 15.949-2.1992 22.859l-0.003906 0.003906c-3.2148 3.3125-7.5 5.3828-12.094 5.8398zm38.488-4.5039c5.6953 5.6953 4.7109 15.949-2.1953 22.859-6.9062 6.9102-17.168 7.8945-22.859 2.1992-5.6914-5.6914-4.7109-15.949 2.1992-22.859 3.2148-3.3164 7.4961-5.3867 12.094-5.8438 0.46094-0.039062 0.91016-0.058593 1.3594-0.058593 3.5039-0.082032 6.8945 1.2539 9.4023 3.7031zm16.781-25.332v-0.003906c-1.6445 3.3516-5.1758 5.3477-8.8906 5.0234l-11.055-0.73047-0.72656-11.031v0.003906c-0.32812-3.7383 1.6836-7.293 5.0625-8.9297l31.137-15.504z"/>
<text x="0.0" y="117.5" font-size="5.0" font-weight="bold" font-family="Arbeit Regular, Helvetica, Arial-Unicode, Arial, Sans-serif" fill="#000000">Created by Atif Arshad</text><text x="0.0" y="122.5" font-size="5.0" font-weight="bold" font-family="Arbeit Regular, Helvetica, Arial-Unicode, Arial, Sans-serif" fill="#000000">from Noun Project</text></svg>