<svg xmlns="http://www.w3.org/2000/svg" version="1.1" viewBox="-5.0 -10.0 110.0 135.0">
 <path d="m50 0.83203c-12.691-0.019531-24.895 4.8789-34.051 13.66-9.1602 8.7852-14.559 20.773-15.07 33.453-0.51172 12.68 3.9102 25.062 12.332 34.555 0.13672 0.20703 0.30859 0.39453 0.50391 0.55078 9.2734 10.258 22.457 16.109 36.285 16.109 13.832 0 27.016-5.8516 36.289-16.109 0.19531-0.16016 0.36328-0.34375 0.5-0.55469 8.4258-9.4922 12.844-21.875 12.332-34.555-0.50781-12.68-5.9102-24.668-15.07-33.449-9.1562-8.7852-21.359-13.68-34.051-13.66zm0 93.332v0.003907c-12.176-0.003907-23.805-5.0547-32.125-13.949 0.58594-4.1484 3.4648-7.6094 7.4336-8.9492l17.148-5.832h0.003907c4.7422 2.4844 10.402 2.4844 15.141 0l17.102 5.8281h0.003906c3.9609 1.3398 6.832 4.8008 7.418 8.9414-8.3164 8.8984-19.945 13.953-32.125 13.961zm-15.402-52.668c11.109-0.58984 19.297-3.5117 25.512-8.9844v0.003906c2.8164 0.74219 4.9297 3.0703 5.4023 5.9414 0 0.125 0 0.24609-0.027344 0.37109-0.0625 0.77734-0.125 1.5586-0.17188 2.332h-0.003906c-0.019532 1.3711 0.91016 2.5742 2.2461 2.8984 0.11328 1.6328-0.46094 3.2383-1.5898 4.4297-0.64062 0.69922-1.1914 1.4766-1.6445 2.3125-1.5703 3.2031-3.7305 6.082-6.3711 8.4844-4.457 3.9883-11.184 4.0312-15.695 0.10547-2.125-2.2031-4.0547-4.5898-5.7656-7.1289-0.375-0.50391-0.72266-1.0234-1.043-1.5664-0.47656-0.80078-1.0039-1.5703-1.582-2.3008-0.91406-1.082-1.4297-2.4453-1.4648-3.8594 0-0.41016 0.035156-0.60938 0.019531-0.64844 0.070312-0.03125 0.14844-0.054688 0.22656-0.066407 1.1016-0.23828 1.9023-1.1914 1.9531-2.3164zm-0.29688-7.7422v0.003906c0.046875-4.4727 2.9492-8.418 7.207-9.793 4.7031-2.0195 9.9766-2.2891 14.867-0.76172 3.3438 0.73828 6.2422 2.8086 8.0195 5.7383-0.94141-0.55078-1.9492-0.97656-3-1.2617-1.3828-0.35938-2.8516-0.14063-4.0703 0.60547-0.125 0.078125-0.24609 0.16797-0.35938 0.26562-6.3711 5.2344-14.387 8.0547-22.633 7.9609-0.027343-0.92188-0.054687-1.8438-0.03125-2.75zm51.668 41.785-0.003906 0.003907c-1.7812-4.2461-5.3008-7.5234-9.6641-9l-13.82-4.7109c2.5508-2.5352 4.6719-5.4766 6.2695-8.6992 0.24609-0.4375 0.53906-0.84375 0.875-1.2148 2.0547-2.1719 3.1094-5.1016 2.9141-8.0859-0.039062-1.6016-0.82422-3.0938-2.1211-4.0391l0.046875-0.55859c0.125-1.5938 0.25781-3.2383 0.23438-4.8984-0.10938-7.9414-4.5703-13.441-12.871-15.906-5.9492-1.8672-12.371-1.5547-18.113 0.87891-3.0117 1.0156-5.6328 2.9453-7.4961 5.5156-1.8672 2.5742-2.8867 5.6641-2.918 8.8438-0.046875 1.8477 0.078125 3.668 0.19141 5.4453 0 0.23438 0.03125 0.46484 0.042968 0.69531-1.5312 1.1211-2.3477 2.9805-2.1367 4.8672 0.066406 2.5352 0.98828 4.9727 2.6172 6.918 0.43359 0.55078 0.82422 1.1328 1.1758 1.7383 0.42188 0.66797 0.83984 1.332 1.2383 1.8555v0.003906c1.5898 2.3164 3.3477 4.5117 5.2617 6.5703l-13.977 4.7695c-4.3672 1.4844-7.8828 4.7695-9.668 9.0195-8.168-11.488-10.359-26.184-5.8984-39.551 4.4609-13.367 15.035-23.805 28.465-28.086 13.426-4.2812 28.09-1.8945 39.465 6.4219 11.379 8.3203 18.098 21.57 18.09 35.664 0 9.1641-2.8711 18.098-8.207 25.547z"/>
<text x="0.0" y="117.5" font-size="5.0" font-weight="bold" font-family="Arbeit Regular, Helvetica, Arial-Unicode, Arial, Sans-serif" fill="#000000">Created by Atif Arshad</text><text x="0.0" y="122.5" font-size="5.0" font-weight="bold" font-family="Arbeit Regular, Helvetica, Arial-Unicode, Arial, Sans-serif" fill="#000000">from Noun Project</text></svg>